<svg xmlns="http://www.w3.org/2000/svg" width="512" height="512" viewBox="0 0 64 64">
    <path d="M27 60.692l-4.929-12.32 1.858-.744L27 55.308 28.323 52h3.873l-4.044-6.47 1.696-1.06L35.804 54h-6.127zM16 60.692L13.323 54H7.196l5.956-9.53 1.696 1.06L10.804 52h3.873L16 55.308l3.071-7.68 1.858.744z" data-original="#000000"/>
    <path fill="#52c8ff" d="M21 49c-6.617 0-12-5.383-12-12s5.383-12 12-12 12 5.383 12 12-5.383 12-12 12zm0-19c-3.86 0-7 3.14-7 7s3.14 7 7 7 7-3.14 7-7-3.14-7-7-7z" class="active-path" data-old_color="#f0bc5e" data-original="#F0BC5E"/>
    <path d="M21 45c-4.411 0-8-3.589-8-8s3.589-8 8-8 8 3.589 8 8-3.589 8-8 8zm0-14c-3.309 0-6 2.691-6 6s2.691 6 6 6 6-2.691 6-6-2.691-6-6-6z" data-original="#000000"/>
    <path fill="#52c8ff" d="M59.057 10.173l-.063-.566c-.065-.586-.318-1.288-.751-2.085l-.286-.527-1.8.013-.601-1.788-.563-.116a4.835 4.835 0 0 0-1.983 0l-.569.116-.588 1.785-1.915-.008-.285.524c-.071.13-.137.274-.2.421-.067-.138-.133-.276-.211-.421l-.286-.527-1.8.013-.601-1.788-.563-.116a4.835 4.835 0 0 0-1.983 0l-.568.117-.588 1.785-1.915-.008-.285.524c-.071.13-.137.274-.2.421-.067-.138-.133-.276-.211-.421l-.286-.527-1.8.013-.601-1.788-.563-.116a4.835 4.835 0 0 0-1.983 0l-.568.117-.588 1.785-1.915-.008-.285.524a6.047 6.047 0 0 0-.647 2.086l-.063.566 1.567 1.181-.601 1.917.376.423a5.02 5.02 0 0 0 1.598 1.208l.548.262L36 13.982l1.569 1.182.548-.262a5.02 5.02 0 0 0 1.598-1.208l.376-.423-.601-1.917 1.011-.761 1.011.761-.601 1.917.376.423a5.02 5.02 0 0 0 1.598 1.208l.548.262L45 13.982l1.569 1.182.548-.262a5.02 5.02 0 0 0 1.598-1.208l.376-.423-.601-1.917 1.011-.761 1.011.761-.601 1.917.376.423a5.02 5.02 0 0 0 1.598 1.208l.548.262L54 13.982l1.569 1.182.548-.262a5.02 5.02 0 0 0 1.598-1.208l.376-.423-.601-1.917z" class="active-path" data-old_color="#f0bc5e" data-original="#F0BC5E"/>
    <path d="M60 19c1.654 0 3-1.346 3-3V4c0-1.654-1.346-3-3-3H30c-1.654 0-3 1.346-3 3v3.019A9.938 9.938 0 0 0 21 5c-5.514 0-10 4.486-10 10v6.002a6.668 6.668 0 0 0-6.582 5.887L1.046 55.553A6.675 6.675 0 0 0 7.668 63h26.664a6.675 6.675 0 0 0 6.622-7.447L40.418 51h1.345l.522.261c.968.484 2.05.739 3.132.739H60c1.654 0 3-1.346 3-3a2.98 2.98 0 0 0-.78-2c.48-.532.78-1.229.78-2s-.301-1.468-.78-2c.48-.532.78-1.229.78-2s-.301-1.468-.78-2c.48-.532.78-1.229.78-2 0-1.654-1.346-3-3-3h-5c-.551 0-1-.449-1-1v-6.757a6.373 6.373 0 0 0-1.879-4.536A2.396 2.396 0 0 0 50.414 21 2.417 2.417 0 0 0 48 23.414V28c0 3.422-1.7 6.598-4.547 8.496a2.99 2.99 0 0 1-1.664.504h-3.018l-1.189-10.111A6.668 6.668 0 0 0 31 21.002V19zm-47-4c0-4.411 3.589-8 8-8s8 3.589 8 8v6h-2v-6c0-3.309-2.691-6-6-6s-6 2.691-6 6v6h-2zm12 0v6h-8v-6c0-2.206 1.794-4 4-4s4 1.794 4 4zm16.789 24c.99 0 1.949-.291 2.773-.84A12.186 12.186 0 0 0 50 28v-4.586c0-.337.469-.531.707-.293A4.385 4.385 0 0 1 52 26.243V33c0 1.654 1.346 3 3 3h5c.551 0 1 .449 1 1s-.449 1-1 1h-1v2h1c.551 0 1 .449 1 1s-.449 1-1 1h-1v2h1c.551 0 1 .449 1 1s-.449 1-1 1h-1v2h1c.551 0 1 .449 1 1s-.449 1-1 1H45.417a5.031 5.031 0 0 1-2.236-.528L42.236 49h-2.053l-1.176-10zm-6.193-11.878l3.372 28.665A4.673 4.673 0 0 1 34.332 61H7.668a4.673 4.673 0 0 1-4.636-5.213l3.372-28.665A4.67 4.67 0 0 1 11.04 23h19.92a4.67 4.67 0 0 1 4.636 4.122zM29 9.025V4c0-.551.449-1 1-1h30c.551 0 1 .449 1 1v12c0 .551-.449 1-1 1H31v-2c0-2.241-.75-4.305-2-5.975z" data-original="#000000"/>
</svg>
