<svg xmlns="http://www.w3.org/2000/svg" width="512" height="512" viewBox="-39 0 495 495.648">
    <path fill="#52c8ff" d="M216.324 112h-112c-4.418 0-8-3.586-8-8V72c0-4.414 3.582-8 8-8h112c4.414 0 8 3.586 8 8v32c0 4.414-3.586 8-8 8zm0 0" class="active-path" data-old_color="#f0bc5e" data-original="#F0BC5E"/>
    <path d="M64.324 136h88v16h-88zm0 0M168.324 136h88v16h-88zm0 0M64.324 200h88v16h-88zm0 0M168.324 200h88v16h-88zm0 0" data-original="#000000"/>
    <path d="M288.324 240V72h-8c-17.648 0-32-14.352-32-32v-8h-176v8c0 17.648-14.351 32-32 32h-8v272h8c17.649 0 32 14.352 32 32v8h160v-16H87.66c-3.383-20.07-19.265-35.953-39.336-39.336V87.336C68.394 83.953 84.277 68.07 87.66 48h145.328c3.383 20.07 19.266 35.953 39.336 39.336V240zm0 0M378.293 397.398l-15.328 4.594 16.375 54.567-20.594-10.293-18.086 18.086-11.039-44.137-15.512 3.883 17.88 71.55 29.91-29.914 43.41 21.707zm0 0" data-original="#000000"/>
    <path d="M283.988 464.352l-18.09-18.086-20.59 10.293 16.376-54.567-15.329-4.594-.785 2.602H55.605c-3.386-20.055-19.226-35.887-39.28-39.281V55.28C36.378 51.895 52.21 36.055 55.604 16h209.438c3.387 20.055 19.227 35.887 39.281 39.281V232h16V0h-320v416h240.45l-21.434 71.441 43.406-21.707 29.914 29.914 17.88-71.55-15.513-3.875zM304.324 16v22.863A31.926 31.926 0 0 1 281.461 16zm-288 0h22.863a31.926 31.926 0 0 1-22.863 22.863zm0 384v-22.863c11.192 2.91 19.961 11.672 22.863 22.863zm0 0" data-original="#000000"/>
    <path d="M64.324 232h88v16h-88zm0 0M168.324 232h88v16h-88zm0 0M64.324 168h192v16h-192zm0 0M64.324 264h173.254v16H64.324zm0 0" data-original="#000000"/>
    <path fill="#52c8ff" d="M312.324 432c-9.625 0-18.543-3.984-24.945-10.91-9 2.82-18.719 1.781-27.055-3.02-8.336-4.812-14.07-12.726-16.152-21.918-9.192-2.082-17.113-7.816-21.918-16.152-4.809-8.336-5.832-18.063-3.02-27.055-6.925-6.402-10.91-15.32-10.91-24.945s3.985-18.543 10.91-24.945c-2.812-8.993-1.796-18.72 3.02-27.055 4.812-8.336 12.726-14.07 21.918-16.152 2.082-9.192 7.816-17.114 16.152-21.918 8.328-4.809 18.047-5.832 27.055-3.02 6.402-6.926 15.32-10.91 24.945-10.91s18.543 3.984 24.946 10.91c8.992-2.832 18.71-1.789 27.054 3.02 8.336 4.812 14.07 12.726 16.153 21.918 9.191 2.082 17.113 7.816 21.918 16.152 4.808 8.336 5.832 18.063 3.015 27.055 6.93 6.402 10.914 15.32 10.914 24.945s-3.984 18.543-10.914 24.945c2.817 8.993 1.8 18.72-3.015 27.055-4.817 8.336-12.727 14.07-21.918 16.152-2.082 9.192-7.817 17.114-16.153 21.918-8.344 4.809-18.062 5.817-27.054 3.02-6.403 6.926-15.32 10.91-24.946 10.91zm0 0" class="active-path" data-old_color="#f0bc5e" data-original="#F0BC5E"/>
    <path d="M312.324 400c-39.703 0-72-32.297-72-72s32.297-72 72-72 72 32.297 72 72-32.297 72-72 72zm0-128c-30.87 0-56 25.129-56 56s25.13 56 56 56c30.871 0 56-25.129 56-56s-25.129-56-56-56zm0 0" data-original="#000000"/>
    <path d="M312.324 371.313l-32.687-32.688c-4.649-4.648-7.313-11.082-7.313-17.656 0-13.77 11.2-24.969 24.969-24.969 5.414 0 10.727 1.809 15.031 5.031 4.305-3.222 9.617-5.031 15.031-5.031 13.77 0 24.97 11.2 24.97 24.969 0 6.574-2.665 13.008-7.313 17.656zM297.293 312c-4.945 0-8.969 4.023-8.969 8.969a9.03 9.03 0 0 0 2.625 6.344l21.375 21.375 21.375-21.375a9.03 9.03 0 0 0 2.625-6.344c0-4.946-4.023-8.969-8.969-8.969a9.03 9.03 0 0 0-6.343 2.625l-8.688 8.688-8.687-8.688a9.03 9.03 0 0 0-6.344-2.625zm0 0" data-original="#000000"/>
</svg>
