<?xml version="1.0"?>
<svg xmlns="http://www.w3.org/2000/svg" height="512px" viewBox="-32 0 496 496" width="512px"><g><path d="m64 368h160v-23.855469c0-17.761719-11.929688-33.578125-29.007812-38.472656l-26.992188-7.703125v-2.136719c9.96875-7.511719 16-19.328125 16-31.832031v-14.335938c0-21.503906-16.007812-39.726562-36.449219-41.503906-11.191406-.96875-22.34375 2.800782-30.574219 10.351563-8.25 7.558593-12.976562 18.3125-12.976562 29.488281v16c0 12.503906 6.03125 24.320312 16 31.832031v2.136719l-26.992188 7.710938c-17.078124 4.878906-29.007812 20.703124-29.007812 38.464843zm16-23.855469c0-10.65625 7.160156-20.152343 17.40625-23.082031l38.59375-11.03125v-23.070312l-3.976562-2.3125c-7.527344-4.382813-12.023438-12.105469-12.023438-20.648438v-16c0-6.703125 2.839844-13.160156 7.792969-17.695312 5.007812-4.601563 11.503906-6.792969 18.382812-6.207032 12.230469 1.0625 21.824219 12.285156 21.824219 25.566406v14.335938c0 8.542969-4.496094 16.265625-12.023438 20.648438l-3.976562 2.3125v23.070312l38.59375 11.023438c10.246094 2.9375 17.40625 12.433593 17.40625 23.089843v7.855469h-128zm0 0" data-original="#000000"/><path d="m272 416h-256v-336h159.695312v-16h-159.695312v-24c0-13.230469 10.769531-24 24-24h208c13.230469 0 24 10.769531 24 24h16c0-22.054688-17.945312-40-40-40h-208c-22.054688 0-40 17.945312-40 40v416c0 22.054688 17.945312 40 40 40h208c22.054688 0 40-17.945312 40-40v-282h-16zm-24 64h-208c-13.230469 0-24-10.769531-24-24v-24h256v24c0 13.230469-10.769531 24-24 24zm0 0" data-original="#000000"/><path d="m32 400h224v-202h-16v186h-192v-272h152v-16h-168zm0 0" data-original="#000000"/><path d="m120 448h48v16h-48zm0 0" data-original="#000000"/><path d="m120 32h48v16h-48zm0 0" data-original="#000000"/><path d="m88 32h16v16h-16zm0 0" data-original="#000000"/><path d="m64 128h112v16h-112zm0 0" data-original="#000000"/><path d="m64 160h80v16h-80zm0 0" data-original="#000000"/><path d="m216 232v-56c-13.230469 0-24-10.769531-24-24v-96c0-13.230469 10.769531-24 24-24h192c13.230469 0 24 10.769531 24 24v96c0 13.230469-10.769531 24-24 24h-117.335938zm0 0" fill="#f0bc5e" data-original="#F0BC5E" class="active-path" style="fill:#52C8FF" data-old_color="#f0bc5e"/><path d="m248 128c-13.230469 0-24-10.769531-24-24s10.769531-24 24-24 24 10.769531 24 24-10.769531 24-24 24zm0-32c-4.40625 0-8 3.59375-8 8s3.59375 8 8 8 8-3.59375 8-8-3.59375-8-8-8zm0 0" data-original="#000000"/><path d="m312 128c-13.230469 0-24-10.769531-24-24s10.769531-24 24-24 24 10.769531 24 24-10.769531 24-24 24zm0-32c-4.40625 0-8 3.59375-8 8s3.59375 8 8 8 8-3.59375 8-8-3.59375-8-8-8zm0 0" data-original="#000000"/><path d="m376 128c-13.230469 0-24-10.769531-24-24s10.769531-24 24-24 24 10.769531 24 24-10.769531 24-24 24zm0-32c-4.40625 0-8 3.59375-8 8s3.59375 8 8 8 8-3.59375 8-8-3.59375-8-8-8zm0 0" data-original="#000000"/></g> </svg>
