<?xml version="1.0"?>
<svg xmlns="http://www.w3.org/2000/svg" height="512px" viewBox="-27 0 495 496" width="512px" class=""><g><path d="m136.5 212.945312v-105.890624l105.886719 52.945312zm0 0" fill="#f0bc5e" data-original="#F0BC5E" class="active-path" style="fill:#52C8FF" data-old_color="#f0bc5e"/><path d="m416.5 176h-70.246094l-55.992187 224h-25.167969l6.855469-96h24.550781v-16h-221.289062l-1.773438-16h223.0625v-240c0-17.648438-14.351562-32-32-32h-160c-17.648438 0-32 14.351562-32 32v224h-16.9375l17.777344 160h223.160156c4.414062 0 8 3.59375 8 8s-3.585938 8-8 8h-200v16h200c13.230469 0 24-10.769531 24-24 0-9.769531-5.886719-18.160156-14.28125-21.902344l44.527344-178.097656h65.753906c13.230469 0 24-10.769531 24-24s-10.769531-24-24-24zm-328 80v-192h192v192zm16-240h160c8.824219 0 16 7.175781 16 16v16h-192v-16c0-8.824219 7.175781-16 16-16zm144.550781 384h-23.964843l6.855468-96h23.964844zm-95.957031-96h23.40625v96h-16.550781zm-9.1875 96h-23.964844l-6.855468-96h23.964843zm48.59375-96h23.40625l-6.855469 96h-16.550781zm-115.503906 0h20.0625l6.855468 96h-16.246093zm339.503906-96h-61.753906l4-16h57.753906c4.414062 0 8 3.59375 8 8s-3.585938 8-8 8zm0 0" data-original="#000000" class="" style="fill:#000000"/><path d="m32.898438 64.398438-11.308594-11.308594c-13.601563 13.597656-21.089844 31.679687-21.089844 50.910156s7.488281 37.3125 21.089844 50.910156l11.308594-11.308594c-10.566407-10.585937-16.398438-24.640624-16.398438-39.601562s5.832031-29.015625 16.398438-39.601562zm0 0" data-original="#000000" class="" style="fill:#000000"/><path d="m44.21875 75.710938c-7.550781 7.554687-11.71875 17.601562-11.71875 28.289062s4.167969 20.734375 11.71875 28.289062l11.3125-11.320312c-4.535156-4.527344-7.03125-10.554688-7.03125-16.96875s2.496094-12.441406 7.03125-16.96875zm0 0" data-original="#000000" class="" style="fill:#000000"/><path d="m336.101562 143.601562 11.308594 11.308594c13.601563-13.597656 21.089844-31.679687 21.089844-50.910156s-7.488281-37.3125-21.089844-50.910156l-11.308594 11.308594c10.566407 10.585937 16.398438 24.640624 16.398438 39.601562s-5.832031 29.015625-16.398438 39.601562zm0 0" data-original="#000000" class="" style="fill:#000000"/><path d="m324.78125 132.289062c7.550781-7.554687 11.71875-17.601562 11.71875-28.289062s-4.167969-20.734375-11.71875-28.289062l-11.3125 11.320312c4.535156 4.527344 7.03125 10.554688 7.03125 16.96875s-2.496094 12.441406-7.03125 16.96875zm0 0" data-original="#000000" class="" style="fill:#000000"/><g fill="#f0bc5e"><path d="m96.5 496c-17.648438 0-32-14.351562-32-32s14.351562-32 32-32 32 14.351562 32 32-14.351562 32-32 32zm0 0" data-original="#F0BC5E" class="active-path" style="fill:#52C8FF" data-old_color="#F0BC5E"/><path d="m272.5 496c-17.648438 0-32-14.351562-32-32s14.351562-32 32-32 32 14.351562 32 32-14.351562 32-32 32zm0 0" data-original="#F0BC5E" class="active-path" style="fill:#52C8FF" data-old_color="#F0BC5E"/></g></g> </svg>
