<svg xmlns="http://www.w3.org/2000/svg" width="512" height="512" viewBox="0 0 64 64">
    <path fill="#52c8ff" d="M22 62H4V38h18v24zM38 1c-8.837 0-16 7.163-16 16 0 7.797 5.58 14.283 12.962 15.703.01-.171.038-.338.038-.511V26l-2.502 1-.562-6.028L27 17.473l4.936-3.499.562-6.028L38 10.473l5.502-2.527.562 6.028L49 17.473l-4.936 3.499L43.502 27 41 26v6.709C48.401 31.304 54 24.81 54 17c0-8.837-7.163-16-16-16z" class="active-path" data-old_color="#F0BC5E" data-original="#F0BC5E"/>
    <path d="M58.618 44A3.975 3.975 0 0 0 60 41c0-2.206-1.794-4-4-4H45c-1.654 0-3-1.346-3-3v-6.523l2.374.949.644-6.903 5.711-4.049-5.711-4.049-.65-6.975L38 9.373 31.633 6.45l-.65 6.975-5.711 4.049 5.711 4.049.644 6.903L34 27.477v4.715a7.799 7.799 0 0 1-4.732 7.177 7.76 7.76 0 0 1-3.076.631H22v2h4.192a9.756 9.756 0 0 0 3.864-.793A9.796 9.796 0 0 0 36 32.192v-7.668l-2.631 1.051-.48-5.153-4.16-2.949 4.16-2.949.474-5.08L38 11.574l4.638-2.129.474 5.08 4.16 2.949-4.16 2.949-.48 5.153L40 24.523V34c0 2 1.188 3.717 2.89 4.516A3.961 3.961 0 0 0 42 41c0 .829.254 1.6.688 2.239C41.128 43.786 40 45.256 40 47c0 1.2.542 2.266 1.382 3-.84.734-1.382 1.8-1.382 3s.542 2.266 1.382 3A3.975 3.975 0 0 0 40 59c0 .732.212 1.409.556 2h-2.848a27.557 27.557 0 0 1-12.261-2.895L25.236 58H22v2h2.766c4.009 1.963 8.479 3 12.942 3H52c2.206 0 4-1.794 4-4 0-.829-.254-1.6-.688-2.239C56.872 56.214 58 54.744 58 53c0-.829-.254-1.6-.688-2.239C58.872 50.214 60 48.744 60 47c0-1.2-.542-2.266-1.382-3zM47 39h9c1.103 0 2 .897 2 2s-.897 2-2 2H46c-1.103 0-2-.897-2-2s.897-2 2-2h1zm5 22h-8c-1.103 0-2-.897-2-2s.897-2 2-2h8c1.103 0 2 .897 2 2s-.897 2-2 2zm2-6H44c-1.103 0-2-.897-2-2s.897-2 2-2h10c1.103 0 2 .897 2 2s-.897 2-2 2zm2-6H44c-1.103 0-2-.897-2-2s.897-2 2-2h12c1.103 0 2 .897 2 2s-.897 2-2 2z" data-original="#000000"/>
    <path d="M42 18c0-2.206-1.794-4-4-4s-4 1.794-4 4 1.794 4 4 4 4-1.794 4-4zm-4 2c-1.103 0-2-.897-2-2s.897-2 2-2 2 .897 2 2-.897 2-2 2zM16 42h2v2h-2zM16 46h2v16h-2zM12 38h2v24h-2z" data-original="#000000"/>
</svg>
