<?xml version="1.0"?>
<svg xmlns="http://www.w3.org/2000/svg" xmlns:xlink="http://www.w3.org/1999/xlink" version="1.1" id="Capa_1" x="0px" y="0px" viewBox="0 0 496 496" style="enable-background:new 0 0 496 496;" xml:space="preserve" width="512px" height="512px" class="hovered-paths"><g><g>
	<path style="fill:#53C8FE" d="M392,296c2.704,0,5.352,0.184,8,0.4V208h-64v106.136C351.776,302.768,371.072,296,392,296z" data-original="#F0BC5E" class="active-path" data-old_color="#F0BC5E"/>
	<path style="fill:#53C8FE" d="M488,392h8V160h-64v144.816C465.024,319.992,488,353.272,488,392z" data-original="#F0BC5E" class="active-path" data-old_color="#F0BC5E"/>
	<polygon style="fill:#53C8FE" points="112,192 48,192 48,408 64,408 96,408 112,408  " data-original="#F0BC5E" class="active-path" data-old_color="#F0BC5E"/>
	<polygon style="fill:#53C8FE" points="208,240 144,240 144,408 160,408 192,408 208,408  " data-original="#F0BC5E" class="active-path" data-old_color="#F0BC5E"/>
	<polygon style="fill:#53C8FE" points="304,128 240,128 240,408 256,408 288,408 304,408  " data-original="#F0BC5E" class="active-path" data-old_color="#F0BC5E"/>
</g><path d="M80,160c9.608,0,18.128-4.336,24-11.056l40.728,20.368c-0.464,2.16-0.728,4.392-0.728,6.688c0,17.648,14.352,32,32,32  s32-14.352,32-32c0-6.8-2.168-13.088-5.8-18.28l55.792-65.088C262.24,94.72,266.952,96,272,96c6.96,0,13.352-2.288,18.608-6.072  l48.544,40.456C337.192,134.528,336,139.112,336,144c0,17.648,14.352,32,32,32s32-14.352,32-32c0-2.688-0.432-5.264-1.064-7.76  l33.776-18.424C438.56,124.048,446.8,128,456,128c17.648,0,32-14.352,32-32s-14.352-32-32-32s-32,14.352-32,32  c0,2.688,0.432,5.264,1.064,7.768l-33.776,18.424C385.44,115.952,377.2,112,368,112c-6.96,0-13.352,2.288-18.608,6.072  l-48.544-40.456C302.816,73.472,304,68.888,304,64c0-17.648-14.352-32-32-32s-32,14.352-32,32c0,6.808,2.168,13.088,5.8,18.28  l-55.792,65.088C185.76,145.28,181.048,144,176,144c-9.6,0-18.128,4.336-24,11.056l-40.728-20.368  c0.464-2.16,0.728-4.392,0.728-6.688c0-17.648-14.352-32-32-32s-32,14.352-32,32S62.352,160,80,160z M456,80c8.824,0,16,7.176,16,16  s-7.176,16-16,16s-16-7.176-16-16S447.176,80,456,80z M368,128c8.824,0,16,7.176,16,16s-7.176,16-16,16s-16-7.176-16-16  S359.176,128,368,128z M272,48c8.824,0,16,7.176,16,16s-7.176,16-16,16s-16-7.176-16-16S263.176,48,272,48z M176,160  c8.824,0,16,7.176,16,16s-7.176,16-16,16s-16-7.176-16-16S167.176,160,176,160z M80,112c8.824,0,16,7.176,16,16s-7.176,16-16,16  s-16-7.176-16-16S71.176,112,80,112z" data-original="#000000" class="" data-old_color="#000000" style="fill:#000000"/><path d="M392,352c8.824,0,16,7.176,16,16h16c0-14.872-10.232-27.288-24-30.864V320h-16v17.136c-13.768,3.576-24,15.992-24,30.864  c0,17.648,14.352,32,32,32c8.824,0,16,7.176,16,16s-7.176,16-16,16s-16-7.176-16-16h-16c0,14.872,10.232,27.288,24,30.864V464h16  v-17.136c13.768-3.576,24-15.992,24-30.864c0-17.648-14.352-32-32-32c-8.824,0-16-7.176-16-16S383.176,352,392,352z" data-original="#000000" class="" data-old_color="#000000" style="fill:#000000"/><rect x="448" y="384" width="16" height="16" data-original="#000000" class="" data-old_color="#000000" style="fill:#000000"/><rect x="320" y="384" width="16" height="16" data-original="#000000" class="" data-old_color="#000000" style="fill:#000000"/><path d="M392,288c-57.344,0-104,46.656-104,104c0,2.704,0.2,5.352,0.408,8H16V0H0v416h290.904c10.88,45.792,52.024,80,101.096,80  c25.632,0,50.256-9.408,69.336-26.488l-10.672-11.92C434.52,472.04,413.688,480,392,480c-48.52,0-88-39.48-88-88s39.48-88,88-88  s88,39.48,88,88c0,18.552-5.712,36.304-16.504,51.328l12.984,9.344C489.248,434.904,496,413.928,496,392  C496,334.656,449.344,288,392,288z" data-original="#000000" class="" data-old_color="#000000" style="fill:#000000"/></g> </svg>
