<?xml version="1.0"?>
<svg xmlns="http://www.w3.org/2000/svg" xmlns:xlink="http://www.w3.org/1999/xlink" version="1.1" id="Capa_1" x="0px" y="0px" viewBox="0 0 496 496" style="enable-background:new 0 0 496 496;" xml:space="preserve" width="512px" height="512px" class="hovered-paths"><g><g>
	<circle style="fill:#53C8FE" cx="392" cy="208" r="72" data-original="#F0BC5E" class="active-path" data-old_color="#F0BC5E"/>
	<path style="fill:#53C8FE" d="M328,104H152c-4.424,0-8-3.576-8-8V48c0-4.424,3.576-8,8-8h176c4.424,0,8,3.576,8,8v48   C336,100.424,332.424,104,328,104z" data-original="#F0BC5E" class="active-path" data-old_color="#F0BC5E"/>
</g><path d="M80,192h16V48c0-12.304-4.688-23.496-12.32-32H368c17.648,0,32,14.352,32,32v56.408c-2.648-0.208-5.296-0.408-8-0.408  c-57.344,0-104,46.656-104,104s46.656,104,104,104c2.704,0,5.352-0.2,8-0.408V376h16v-66.904c45.792-10.88,80-52.024,80-101.096  s-34.208-90.216-80-101.096V48c0-26.472-21.528-48-48-48H48C21.528,0,0,21.528,0,48v64h80V192z M391.984,291.84  c-5.432-6.696-13.752-18.288-20.568-33.4c6.232-1.472,13.088-2.44,20.584-2.44c7.48,0,14.328,0.96,20.544,2.432  C405.72,273.536,397.408,285.136,391.984,291.84z M427.872,263.536c9.96,4.344,16.928,9.448,20.248,12.184  c-10.704,8.888-23.544,15.264-37.616,18.288C416.04,286.288,422.424,275.976,427.872,263.536z M373.496,294.008  c-14.072-3.024-26.912-9.4-37.616-18.288c3.312-2.736,10.28-7.84,20.248-12.184C361.576,275.976,367.96,286.288,373.496,294.008z   M392,240c-9.712,0-18.496,1.336-26.36,3.36c-2.664-8.432-4.576-17.616-5.288-27.36h63.304c-0.712,9.736-2.64,18.912-5.312,27.352  C410.472,241.336,401.704,240,392,240z M360.352,200c0.712-9.736,2.64-18.92,5.312-27.352C373.528,174.664,382.296,176,392,176  c9.712,0,18.496-1.336,26.36-3.36c2.664,8.432,4.576,17.616,5.288,27.36H360.352z M392,160c-7.48,0-14.328-0.96-20.544-2.432  c6.824-15.104,15.136-26.704,20.552-33.408c5.432,6.696,13.752,18.288,20.568,33.4C406.352,159.032,399.496,160,392,160z   M356.128,152.464c-9.96-4.344-16.928-9.448-20.248-12.184c10.704-8.888,23.544-15.264,37.616-18.288  C367.96,129.712,361.576,140.024,356.128,152.464z M410.504,121.992c14.072,3.024,26.912,9.4,37.616,18.288  c-3.312,2.736-10.28,7.84-20.248,12.184C422.424,140.024,416.04,129.712,410.504,121.992z M324.504,151.632  c3.832,3.336,12.704,10.232,25.912,15.872c-3.144,9.928-5.344,20.848-6.08,32.504H304.4  C306.064,181.688,313.336,164.984,324.504,151.632z M304.408,216h39.936c0.736,11.656,2.936,22.576,6.08,32.504  c-13.208,5.64-22.08,12.536-25.912,15.872C313.336,251.016,306.064,234.312,304.408,216z M459.496,264.368  c-3.832-3.336-12.704-10.232-25.912-15.872c3.144-9.928,5.344-20.848,6.08-32.504H479.6  C477.936,234.312,470.664,251.016,459.496,264.368z M479.592,200h-39.936c-0.736-11.656-2.936-22.576-6.08-32.504  c13.208-5.64,22.08-12.536,25.912-15.872C470.664,164.984,477.936,181.688,479.592,200z M16,96V48c0-17.648,14.352-32,32-32  s32,14.352,32,32v48H16z" data-original="#000000" class=""/><path d="M160,448c0,17.648-14.352,32-32,32s-32-14.352-32-32v-80H80v80c0,26.472,21.528,48,48,48h320c26.472,0,48-21.528,48-48v-56  H160V448z M176,408h304v40c0,17.648-14.352,32-32,32H163.752C171.36,471.504,176,460.28,176,448V408z" data-original="#000000" class=""/><path d="M112,358.944l20.496-13.664C157.312,328.744,186.176,320,216,320h16c13.232,0,24-10.768,24-24v-32c0-13.232-10.768-24-24-24  h-16c-29.824,0-58.688-8.744-83.504-25.28L112,201.056V358.944z M224,256h8c4.416,0,8,3.584,8,8v32c0,4.416-3.584,8-8,8h-8V256z   M128,230.848c24.168,15.056,51.592,23.52,80,24.872v48.552c-28.408,1.352-55.832,9.816-80,24.872V230.848z" data-original="#000000" class=""/><path d="M80,280c0-4.272,1.664-8.288,4.688-11.312l-11.312-11.312C67.328,263.424,64,271.456,64,280s3.328,16.576,9.376,22.624  l11.312-11.312C81.664,288.288,80,284.272,80,280z" data-original="#000000" class=""/><path d="M50.752,234.752C38.656,246.832,32,262.896,32,280s6.656,33.168,18.752,45.248l11.312-11.312  C52.992,304.872,48,292.824,48,280s4.992-24.872,14.064-33.936L50.752,234.752z" data-original="#000000" class=""/><path d="M39.432,223.432L28.12,212.12C9.984,230.256,0,254.368,0,280s9.984,49.744,28.12,67.88l11.312-11.312  C24.32,321.456,16,301.36,16,280S24.32,238.544,39.432,223.432z" data-original="#000000" class=""/><rect x="128" y="120" width="152" height="16" data-original="#000000" class=""/><rect x="128" y="184" width="152" height="16" data-original="#000000" class=""/><rect x="128" y="152" width="64" height="16" data-original="#000000" class=""/><rect x="208" y="152" width="72" height="16" data-original="#000000" class=""/><rect x="256" y="360" width="128" height="16" data-original="#000000" class=""/><rect x="256" y="328" width="56" height="16" data-original="#000000" class=""/><rect x="328" y="328" width="56" height="16" data-original="#000000" class=""/></g> </svg>
