<?xml version="1.0"?>
<svg xmlns="http://www.w3.org/2000/svg" id="Layer_5" enable-background="new 0 0 64 64" height="512px" viewBox="0 0 64 64" width="512px"><g><path d="m32 35c-7.72 0-14-6.28-14-14s6.28-14 14-14 14 6.28 14 14-6.28 14-14 14z" fill="#f0bc5e" data-original="#F0BC5E" class="active-path" style="fill:#52C8FF" data-old_color="#f0bc5e"/><path d="m40.96 16.555c-.399-.804-.906-1.552-1.507-2.222l-1.489 1.334c.48.537.886 1.135 1.206 1.778z" data-original="#000000" class="" style="fill:#000000"/><path d="m42 21c0-.75-.083-1.497-.248-2.221l-1.95.442c.131.58.198 1.178.198 1.779 0 4.411-3.589 8-8 8v2c5.514 0 10-4.486 10-10z" data-original="#000000" class="" style="fill:#000000"/><path d="m35 37h2v2h-2z" data-original="#000000" class="" style="fill:#000000"/><path d="m27 37h2v2h-2z" data-original="#000000" class="" style="fill:#000000"/><path d="m31 37h2v2h-2z" data-original="#000000" class="" style="fill:#000000"/><path d="m19.252 51.918c-.688-.133-1.323-.272-1.905-.415l-.477 1.942c.611.15 1.279.297 2.002.437z" data-original="#000000" class="" style="fill:#000000"/><path d="m23.132 52.511c-.681-.08-1.332-.168-1.949-.262l-.3 1.978c.639.097 1.311.188 2.016.271z" data-original="#000000" class="" style="fill:#000000"/><path d="m27.06 52.856c-.678-.041-1.334-.089-1.967-.145l-.174 1.992c.651.057 1.325.107 2.022.148z" data-original="#000000" class="" style="fill:#000000"/><path d="m48.13 50.816c-.6-.167-1.266-.333-1.999-.492l-.425 1.954c.69.15 1.32.307 1.885.465z" data-original="#000000" class="" style="fill:#000000"/><path d="m44.125 49.936c-.634-.108-1.305-.211-2.013-.306l-.266 1.982c.682.091 1.33.191 1.941.295z" data-original="#000000" class="" style="fill:#000000"/><path d="m40.094 49.392c-.649-.066-1.322-.126-2.021-.177l-.146 1.995c.678.049 1.333.107 1.963.171z" data-original="#000000" class="" style="fill:#000000"/><path d="m38.808 45.273c2.016-3.674 4.615-7.231 7.793-10.621 3.482-3.714 5.399-8.563 5.399-13.652 0-5.681-2.429-11.113-6.664-14.905-4.293-3.844-9.843-5.609-15.616-4.969-9.273 1.027-16.682 8.516-17.616 17.807-.586 5.827 1.375 11.588 5.379 15.809 3.175 3.346 5.757 6.873 7.747 10.528-8.597.679-17.23 2.756-17.23 6.73v4c0 4.596 12.074 7 24 7s24-2.404 24-7v-4c0-3.967-8.611-6.044-17.192-6.727zm-24.714-26.14c.841-8.358 7.505-15.095 15.846-16.019.7-.078 1.396-.116 2.085-.116 4.441 0 8.633 1.592 11.978 4.587 3.811 3.413 5.997 8.303 5.997 13.415 0 4.579-1.725 8.942-4.858 12.284-5.001 5.335-8.657 11.078-10.865 17.07l-.524 1.424c-.269.731-.974 1.222-1.753 1.222s-1.484-.491-1.753-1.222l-.649-1.763c-2.163-5.871-5.75-11.472-10.663-16.65-3.604-3.798-5.369-8.985-4.841-14.232zm12.129 28.073c.555 1.156 1.063 2.321 1.498 3.5l.649 1.763c.558 1.514 2.017 2.531 3.63 2.531s3.072-1.017 3.63-2.531l.524-1.424c.476-1.292 1.033-2.57 1.65-3.837 10.564.727 16.196 3.223 16.196 4.792 0 2.039-8.57 5-22 5s-22-2.961-22-5c0-1.572 5.641-4.069 16.223-4.794zm5.777 13.794c-13.43 0-22-2.961-22-5v-1.019c3.914 2.648 12.997 4.019 22 4.019s18.086-1.371 22-4.019v1.019c0 2.039-8.57 5-22 5z" data-original="#000000" class="" style="fill:#000000"/></g> </svg>
