<?xml version="1.0"?>
<svg xmlns="http://www.w3.org/2000/svg" height="512px" viewBox="0 0 496 496" width="512px" class="hovered-paths"><g><g fill="#f0bc5e"><path d="m0 336h200v80h-200zm0 0" data-original="#F0BC5E" class="active-path" style="fill:#52C8FF" data-old_color="#F0BC5E"/><path d="m180.96875 236.96875c-3.175781-3.183594-4.96875-7.496094-4.96875-12 0-9.367188 7.601562-16.96875 16.96875-16.96875 4.503906 0 8.816406 1.785156 12 4.96875l24.457031 24.457031c6.664063-10.914062 10.574219-23.699219 10.574219-37.425781 0-39.769531-32.230469-72-72-72s-72 32.230469-72 72 32.230469 72 72 72c13.726562 0 26.511719-3.910156 37.425781-10.574219zm0 0" data-original="#F0BC5E" class="active-path" style="fill:#52C8FF" data-old_color="#F0BC5E"/><path d="m335.992188 400 79.996093-79.996094 29.660157 29.65625-80 80zm0 0" data-original="#F0BC5E" class="active-path" style="fill:#52C8FF" data-old_color="#F0BC5E"/></g><path d="m120 400h16v16h-16zm0 0" data-original="#000000" class="hovered-path" style="fill:#000000"/><path d="m152 400h16v16h-16zm0 0" data-original="#000000" class="hovered-path" style="fill:#000000"/><path d="m184 400h16v16h-16zm0 0" data-original="#000000" class="hovered-path" style="fill:#000000"/><path d="m0 368h200v16h-200zm0 0" data-original="#000000" class="hovered-path" style="fill:#000000"/><path d="m88 336h112v16h-112zm0 0" data-original="#000000" class="hovered-path" style="fill:#000000"/><path d="m475.359375 148.800781-14.65625 6.398438c12.800781 29.3125 19.296875 60.535156 19.296875 92.800781 0 36.320312-8.40625 70.703125-23.351562 101.335938l-40.0625-40.0625c-.953126-.960938-1.664063-2.160157-2.035157-3.457032l-13.726562-48.046875c-1.128907-3.90625-3.230469-7.496093-6.105469-10.363281l-56.101562-56.101562c-4.640626-4.640626-11.074219-7.304688-17.648438-7.304688-10.183594 0-18.945312 6.152344-22.816406 14.921875-2.632813-2.507813-5.800782-4.335937-9.214844-5.496094l-.816406-161.59375c-.023438-4.574219-1.058594-8.902343-2.816406-12.839843 19.070312 3.070312 37.640624 8.496093 55.496093 16.296874l6.398438-14.648437c-28.046875-12.257813-57.734375-19.066406-88.382813-20.367187-.894531-.082032-1.777344-.273438-2.695312-.273438h-176.121094c-17.648438 0-32 14.351562-32 32v69.488281c-31.351562 42.710938-48 93.289063-48 146.511719 0 30.40625 5.414062 59.953125 16.078125 88h-16.078125v16h72v-16h-8v-272h208.28125l.65625 129.449219c-9.546875 3.269531-16.472656 12.09375-16.847656 22.648437-9.785156.351563-18.136719 6.292969-21.914063 14.773438l-23.550781-23.550782c-.898438-.894531-1.914062-1.65625-2.9375-2.398437.207031-1.632813.3125-3.273437.3125-4.921875 0-22.054688-17.945312-40-40-40s-40 17.945312-40 40 17.945312 40 40 40c1.648438 0 3.289062-.105469 4.910156-.304688.746094 1.015626 1.503906 2.03125 2.402344 2.9375l45.375 45.367188-1.375 1.375c-12.480469 12.480469-12.480469 32.777344 0 45.25l36.101562 36.101562c2.867188 2.867188 6.457032 4.976563 10.378907 6.113282l6.207031 1.769531v5.390625c0 8.824219-7.175781 16-16 16h-40v16h40c17.648438 0 32-14.351562 32-32v-.824219l23.824219 6.800781c2.609375.75 5 2.167969 6.917969 4.078126l51.203124 51.203124c-35.464843 22-77.234374 34.742188-121.945312 34.742188-59.671875 0-116.921875-23.160156-159.878906-64h15.878906v-16h-104v16h65.664062c46.886719 50.847656 113.097657 80 182.335938 80 136.753906 0 248-111.246094 248-248 0-34.488281-6.945312-67.855469-20.640625-99.199219zm-442.015625 187.199219c-11.464844-27.921875-17.34375-57.480469-17.34375-88 0-41.847656 11.105469-81.878906 32-117.335938v205.335938zm30.65625-288v-16c0-8.824219 7.175781-16 16-16h168c3.625 0 7.230469.113281 10.824219.273438 7.496093 1.292968 13.253906 7.789062 13.296875 15.636718l.078125 16.089844zm80 152c0-13.230469 10.769531-24 24-24s24 10.769531 24 24c0 .03125-.015625.0625-.015625.097656-12.96875.511719-23.375 10.917969-23.886719 23.886719-.035156 0-.066406.015625-.097656.015625-13.230469 0-24-10.769531-24-24zm172.214844 174.59375-46.023438-13.144531c-1.3125-.378907-2.503906-1.089844-3.472656-2.042969l-36.101562-36.101562c-3.015626-3.023438-4.679688-7.039063-4.679688-11.3125 0-4.273438 1.664062-8.289063 4.679688-11.3125l1.382812-1.367188 42.34375 42.34375 11.3125-11.3125-99.03125-99.03125c-1.671875-1.671875-2.625-3.984375-2.625-6.34375 0-4.945312 4.023438-8.96875 8.96875-8.96875 2.359375 0 4.671875.953125 6.34375 2.625l91.03125 91.03125 11.3125-11.3125-51.03125-51.03125c-1.671875-1.671875-2.625-3.984375-2.625-6.34375 0-4.945312 4.023438-8.96875 8.96875-8.96875 2.359375 0 4.671875.953125 6.34375 2.625l51.03125 51.03125 11.3125-11.3125-51.03125-51.03125c-1.671875-1.671875-2.625-3.984375-2.625-6.34375 0-4.945312 4.023438-8.96875 8.96875-8.96875 2.359375 0 4.671875.953125 6.34375 2.625l51.03125 51.03125 11.3125-11.3125-35.03125-35.03125c-1.671875-1.671875-2.625-3.984375-2.625-6.34375 0-4.945312 4.023438-8.96875 8.96875-8.96875 2.359375 0 4.671875.953125 6.34375 2.625l56.101562 56.101562c.953126.960938 1.664063 2.160157 2.035157 3.457032l13.726562 48.046875c1.046875 3.640625 3.015625 6.9375 5.59375 9.699219l-68.769531 68.757812-5.945312-5.945312c-3.832032-3.832032-8.605469-6.644532-13.839844-8.148438zm67.257812 61.566406-36.160156-36.160156 68.6875-68.6875 32.753906 32.75c-16.480468 28.386719-38.777344 52.960938-65.28125 72.097656zm0 0" data-original="#000000" class="hovered-path" style="fill:#000000"/><path d="m400 192c-52.9375 0-96-43.0625-96-96s43.0625-96 96-96 96 43.0625 96 96-43.0625 96-96 96zm0 0" fill="#f0bc5e" data-original="#F0BC5E" class="active-path" style="fill:#52C8FF" data-old_color="#f0bc5e"/><path d="m440 80v-4c0-15.441406-12.558594-28-28-28h-4v-16h-16v16h-4c-15.441406 0-28 12.558594-28 28s12.558594 28 28 28h24c6.617188 0 12 5.382812 12 12s-5.382812 12-12 12h-24c-6.617188 0-12-5.382812-12-12v-4h-16v4c0 15.441406 12.558594 28 28 28h4v16h16v-16h4c15.441406 0 28-12.558594 28-28s-12.558594-28-28-28h-24c-6.617188 0-12-5.382812-12-12s5.382812-12 12-12h24c6.617188 0 12 5.382812 12 12v4zm0 0" data-original="#000000" class="hovered-path" style="fill:#000000"/></g> </svg>
