<svg xmlns="http://www.w3.org/2000/svg" width="512" height="512" viewBox="0 0 496 496">
    <circle cx="384" cy="400" r="64" fill="#52c8ff" class="active-path" data-old_color="#FFA64D" data-original="#FFA64D"/>
    <path fill="#333" d="M392 424h-16c-4.416 0-8-3.592-8-8h-16c0 13.232 10.768 24 24 24v16h16v-16c13.232 0 24-10.768 24-24s-10.768-24-24-24h-16c-4.416 0-8-3.592-8-8s3.584-8 8-8h16c4.416 0 8 3.592 8 8h16c0-13.232-10.768-24-24-24v-16h-16v16c-13.232 0-24 10.768-24 24s10.768 24 24 24h16c4.416 0 8 3.592 8 8s-3.584 8-8 8z" data-old_color="#333333" data-original="#333333"/>
    <path fill="#333" d="M480 304v-56c0-40.8-25.632-75.648-61.608-89.52l1.536-.376C401 80.4 318.6 24 224 24c-23.472 0-46.456 3.4-68.408 10.12C136.336 12.368 109.088 0 80 0h-8v8c0 22.04 3.936 43.632 11.712 64.272C66.904 86.144 53.336 102.16 43.272 120H0v144h43.272c17.984 31.8 47.784 58.288 84.728 75.312V376c0 8.824 7.176 16 16 16h64c8.824 0 16-7.176 16-16v-16c5.2 0 10.56-.192 16-.568V376c0 8.824 7.176 16 16 16h16v104h224V304h-16zm-16-56v56h-16v-56c0-35.288-28.712-64-64-64s-64 28.712-64 64v56h-16v-56c0-44.112 35.888-80 80-80s80 35.888 80 80zm-115.8 56H336v-56c0-26.472 21.528-48 48-48 8.416 0 16.32 2.192 23.2 6.008-4.16 37.704-24.904 72.2-59 97.992zm73.376-85.784C428.08 226.408 432 236.752 432 248v56h-58.976c25.864-24.144 42.616-53.68 48.552-85.784zM256 376v-34.168l-8.832.92c-9.8 1.024-19.272 1.496-28.408 1.096L208 343.48V376h-64v-47.144l-4.832-2.088c-37.496-16.168-67.344-42.624-84.056-74.488L52.856 248H16V136h36.856l2.248-4.288c10.064-19.184 24.56-36.2 43.112-50.568l4.832-3.744-2.336-5.64C93.36 54 89.168 35.408 88.216 16.392c22.88 2.2 43.84 13.576 58.44 31.96l3.48 4.376 5.312-1.768C177.32 43.688 200.392 40 224 40c83.896 0 157.064 47.384 177.936 113.744C396.12 152.64 390.136 152 384 152c-52.936 0-96 43.064-96 96v56h-16v72h-16zm224 104H288V320h192v160z" data-old_color="#333333" data-original="#333333"/>
    <path fill="#333" d="M112 96c-13.232 0-24 10.768-24 24s10.768 24 24 24 24-10.768 24-24-10.768-24-24-24zm0 32c-4.416 0-8-3.592-8-8s3.584-8 8-8 8 3.592 8 8c0 4.408-3.584 8-8 8zM184 72h96v16h-8v16h24V56H168v48h88V88h-72zM432 392h16v16h-16zM320 392h16v16h-16z" data-old_color="#333333" data-original="#333333"/>
</svg>
