<svg xmlns="http://www.w3.org/2000/svg" width="512" height="512" class="hovered-paths" viewBox="-16 0 480 480">
    <path fill="#52c8ff" d="M224 144c-52.938 0-96 43.063-96 96v48h8c0-13.258 10.742-24 24-24h8c0-8.84 7.16-16 16-16h28.672c7.45 0 14.8-1.734 21.465-5.063l17.765-8.882a19.37 19.37 0 0 1 8.684-2.055c10.719 0 19.414 8.695 19.414 19.414V264h8c13.258 0 24 10.742 24 24h8v-48c0-52.938-43.063-96-96-96zm0 0" class="hovered-path active-path" data-old_color="#f0bc5e" data-original="#F0BC5E"/>
    <path d="M327.52 380.305L264 361.985v-16.106A64.218 64.218 0 0 0 283.29 320H288c17.648 0 32-14.352 32-32s-14.352-32-32-32v-4.586C288 236.297 275.695 224 260.586 224c-4.227 0-8.465 1-12.266 2.895l-17.761 8.882A40.28 40.28 0 0 1 212.664 240H184c-10.414 0-19.215 6.71-22.527 16H160c-17.648 0-32 14.352-32 32s14.352 32 32 32h4.71A64.218 64.218 0 0 0 184 345.879v16.105l-63.52 18.32c-23.832 6.88-40.48 29-40.48 53.81V480h288v-45.887c0-24.808-16.648-46.93-40.48-53.808zm-57.122.175l-10.789 37.758-23.632-18.902 22.343-22.344zM220.945 448h6.11l8 16h-22.11zm7.742-16h-9.375l-10-10L224 410.246 238.687 422zM304 288c0 8.824-7.176 16-16 16h-.55c.327-2.625.55-5.29.55-8v-24c8.824 0 16 7.176 16 16zm-144 16c-8.824 0-16-7.176-16-16s7.176-16 16-16v24c0 2.71.223 5.375.55 8zm16-8v-32c0-4.414 3.594-8 8-8h28.664a56.327 56.327 0 0 0 25.047-5.91l17.762-8.875a11.341 11.341 0 0 1 5.113-1.207C266.879 240 272 245.12 272 251.414V296c0 26.473-21.527 48-48 48s-48-21.527-48-48zm48 64a63.56 63.56 0 0 0 24-4.71v9.397l-24 24-24-24v-9.398A63.56 63.56 0 0 0 224 360zm-34.32 16.992l22.343 22.344-23.632 18.902-10.79-37.758zM96 434.113c0-17.715 11.887-33.511 28.91-38.433l37.313-10.77 17.386 60.852 17.125-13.707 9.532 9.52L195.055 464H144v-24h-16v24H96zM352 464h-32v-24h-16v24h-51.055l-11.21-22.426 9.53-9.52 17.126 13.708 17.386-60.852 37.313 10.77c17.023 4.914 28.91 20.718 28.91 38.433zm0 0" data-original="#000000"/>
    <g fill="#f0bc5e">
        <path fill="#52c8ff" d="M224 0l9.977 18.273L256 24l-15.863 13.246L248 64l-24-15.031L200 64l7.863-26.754L192 24l22.023-5.727zm0 0M320 48l9.977 18.273L352 72l-15.863 13.246L344 112l-24-15.031L296 112l7.863-26.754L288 72l22.023-5.727zm0 0M416 0l9.977 18.273L448 24l-15.863 13.246L440 64l-24-15.031L392 64l7.863-26.754L384 24l22.023-5.727zm0 0M128 48l-9.977 18.273L96 72l15.863 13.246L104 112l24-15.031L152 112l-7.863-26.754L160 72l-22.023-5.727zm0 0M32 0l-9.977 18.273L0 24l15.863 13.246L8 64l24-15.031L56 64l-7.863-26.754L64 24l-22.023-5.727zm0 0" class="hovered-path active-path" data-old_color="#F0BC5E" data-original="#F0BC5E"/>
    </g>
    <path d="M417.55 152.246C421.52 147.97 424 142.29 424 136c0-13.23-10.77-24-24-24s-24 10.77-24 24 10.77 24 24 24c1.16 0 2.266-.184 3.375-.344C416.832 186.961 424 217.352 424 248c0 32.512-7.977 64.8-23.07 93.344l14.148 7.488C431.375 317.977 440 283.122 440 248c0-33.223-7.809-66.176-22.45-95.754zM392 136c0-4.406 3.594-8 8-8s8 3.594 8 8-3.594 8-8 8-8-3.594-8-8zm0 0M48 336c-1.16 0-2.266.184-3.375.344C31.168 309.039 24 278.648 24 248c0-32.52 7.977-64.8 23.07-93.344l-14.14-7.48C16.625 178.016 8 212.879 8 248c0 33.223 7.809 66.168 22.441 95.762C26.481 348.039 24 353.719 24 360c0 13.23 10.77 24 24 24s24-10.77 24-24-10.77-24-24-24zm0 32c-4.406 0-8-3.586-8-8s3.594-8 8-8 8 3.586 8 8-3.594 8-8 8zm0 0" data-original="#000000"/>
</svg>
