<svg xmlns="http://www.w3.org/2000/svg" width="512" height="512" class="hovered-paths" viewBox="0 0 496 496">
    <path fill="#52c8ff" d="M128 101.064L108.224 112 112 88.848l-16-16.4 22.112-3.384L128 48l9.888 21.064L160 72.448l-16 16.4L147.776 112zM248 101.064L228.224 112 232 88.848l-16-16.4 22.112-3.384L248 48l9.888 21.064L280 72.448l-16 16.4L267.776 112zM360 101.064L340.224 112 344 88.848l-16-16.4 22.112-3.384L360 48l9.888 21.064L392 72.448l-16 16.4L379.776 112zM184 213.064L164.224 224 168 200.848l-16-16.4 22.112-3.384L184 160l9.888 21.064L216 184.448l-16 16.4L203.776 224zM304 213.064L284.224 224 288 200.848l-16-16.4 22.112-3.384L304 160l9.888 21.064L336 184.448l-16 16.4L323.776 224z" class="hovered-path active-path" data-old_color="#F9BA48" data-original="#F9BA48"/>
    <g>
        <path fill="#333" d="M360 0H136C61.008 0 0 61.008 0 136s61.008 136 136 136h16v29.216c0 18.24-14.152 33.072-32.032 34.504C119.816 322.616 109.136 312 96 312H24c-13.232 0-24 10.768-24 24v136c0 13.232 10.768 24 24 24h72c13.232 0 24-10.768 24-24h9.576a18.93 18.93 0 0 1 15.768 8.44 34.899 34.899 0 0 0 29.08 15.56h117.872C316.4 496 336 476.4 336 452.296v-88.592C336 339.6 316.4 320 292.296 320h-1.44l58.664-48H360c74.992 0 136-61.008 136-136S434.992 0 360 0zM96 480H24c-4.416 0-8-3.584-8-8V336c0-4.416 3.584-8 8-8h72c4.416 0 8 3.584 8 8v136c0 4.416-3.584 8-8 8zm224-116.296v88.592C320 467.568 307.568 480 292.296 480H174.424a18.93 18.93 0 0 1-15.768-8.44 34.899 34.899 0 0 0-29.08-15.56H120V351.92c26.712-1.448 48-23.632 48-50.704V272c0-11.032 8.968-20 20-20s20 8.968 20 20v38.352C208 324.496 219.504 336 233.648 336h58.648C307.568 336 320 348.432 320 363.704zM233.648 320c-5.32 0-9.648-4.328-9.648-9.648V272h56v48h-46.352zM360 256h-16.192L296 295.12V256h-75.92c-5.912-11.8-18-20-32.08-20s-26.168 8.2-32.08 20H136c-66.168 0-120-53.832-120-120S69.832 16 136 16h224c66.168 0 120 53.832 120 120s-53.832 120-120 120z" data-original="#333333"/>
        <path fill="#333" d="M32 448h56v16H32z" data-original="#333333"/>
    </g>
</svg>
