<?xml version="1.0"?>
<svg xmlns="http://www.w3.org/2000/svg" xmlns:xlink="http://www.w3.org/1999/xlink" version="1.1" id="Capa_1" x="0px" y="0px" viewBox="0 0 496 496" style="enable-background:new 0 0 496 496;" xml:space="preserve" width="512px" height="512px"><g><g>
	<path style="fill:#52C8FF" d="M476,40h-32c-4.424,0-8,3.576-8,8v208h16h16h16V48C484,43.576,480.424,40,476,40z" data-original="#F0BC5E" class="active-path" data-old_color="#F0BC5E"/>
	<path style="fill:#52C8FF" d="M412,96h-32c-4.424,0-8,3.576-8,8v152h16h16h16V104C420,99.576,416.424,96,412,96z" data-original="#F0BC5E" class="active-path" data-old_color="#F0BC5E"/>
	<path style="fill:#52C8FF" d="M348,120h-32c-4.424,0-8,3.576-8,8v128h16h16h16V128C356,123.576,352.424,120,348,120z" data-original="#F0BC5E" class="active-path" data-old_color="#F0BC5E"/>
	<path style="fill:#52C8FF" d="M284,144h-32c-4.424,0-8,3.576-8,8v104h16h16h16V152C292,147.576,288.424,144,284,144z" data-original="#F0BC5E" class="active-path" data-old_color="#F0BC5E"/>
</g><rect x="236" y="248" width="256" height="16" data-original="#000000" class="" style="fill:#000000"/><path d="M380,22.048V56h16V0h-56v16h24.672c-38.856,54.352-93.584,93.832-155.72,113.6C188.824,99.704,154.672,80,116,80  C54.24,80,4,130.24,4,192c0,53.512,37.744,98.32,88,109.344V336H76v120c0,22.056,17.944,40,40,40s40-17.944,40-40V336h-16v-34.656  c50.256-11.024,88-55.832,88-109.344c0-17.288-4.056-33.608-11.08-48.24C282.248,122.232,339.632,80.008,380,22.048z M140,456  c0,13.232-10.768,24-24,24s-24-10.768-24-24V352h48V456z M124,336h-16v-32.408c2.656,0.192,5.296,0.408,8,0.408s5.344-0.216,8-0.408  V336z M212,192c0,52.936-43.064,96-96,96s-96-43.064-96-96s43.064-96,96-96c31.256,0,58.992,15.08,76.528,38.28  c-5.776,1.488-11.6,2.784-17.48,3.936C160.408,122.16,139.392,112,116,112c-44.112,0-80,35.888-80,80s35.888,80,80,80  s80-35.888,80-80c0-14.44-3.904-27.968-10.624-39.672c5.392-1.184,10.736-2.488,16.04-3.944C208.136,161.488,212,176.288,212,192z   M168.552,155.568C175.752,165.92,180,178.464,180,192c0,35.288-28.712,64-64,64s-64-28.712-64-64s28.712-64,64-64  c14.744,0,28.304,5.064,39.136,13.472C142.256,143.128,129.192,144,116,144v16C133.792,160,151.328,158.408,168.552,155.568z" data-original="#000000" class="" style="fill:#000000"/><rect x="292" y="304" width="176" height="16" data-original="#000000" class="" style="fill:#000000"/><rect x="292" y="400" width="176" height="16" data-original="#000000" class="" style="fill:#000000"/><rect x="292" y="352" width="80" height="16" data-original="#000000" class="" style="fill:#000000"/><rect x="388" y="352" width="80" height="16" data-original="#000000" class="" style="fill:#000000"/><rect x="292" y="448" width="80" height="16" data-original="#000000" class="" style="fill:#000000"/><rect x="388" y="448" width="80" height="16" data-original="#000000" class="" style="fill:#000000"/><rect x="260" y="304" width="16" height="16" data-original="#000000" class="" style="fill:#000000"/><rect x="260" y="352" width="16" height="16" data-original="#000000" class="" style="fill:#000000"/><rect x="260" y="400" width="16" height="16" data-original="#000000" class="" style="fill:#000000"/><rect x="260" y="448" width="16" height="16" data-original="#000000" class="" style="fill:#000000"/></g> </svg>
