<?xml version="1.0"?>
<svg xmlns="http://www.w3.org/2000/svg" height="512px" viewBox="0 0 496 496" width="512px"><g><g fill="#f0bc5e"><path d="m280 250.9375v-18.9375h40v-72h-70.648438c-.808593 5.230469-1.351562 10.542969-1.351562 16 0 29.464844 12.3125 56.015625 32 74.9375zm0 0" data-original="#F0BC5E" class="active-path" style="fill:#52C8FF" data-old_color="#F0BC5E"/><path d="m216 176c0-5.425781.40625-10.742188 1.023438-16h-121.023438v176h184v-44.777344c-38.390625-24.039062-64-66.589844-64-115.222656zm0 0" data-original="#F0BC5E" class="active-path" style="fill:#52C8FF" data-old_color="#F0BC5E"/><path d="m320 77.070312c-31.679688 10.242188-56.6875 35.25-66.929688 66.929688h66.929688zm0 0" data-original="#F0BC5E" class="active-path" style="fill:#52C8FF" data-old_color="#F0BC5E"/><path d="m320 43.945312v-11.945312h-224v112h123.945312c11.925782-49.359375 50.695313-88.128906 100.054688-100.054688zm0 0" data-original="#F0BC5E" class="active-path" style="fill:#52C8FF" data-old_color="#F0BC5E"/></g><path d="m240 176c0 61.761719 50.238281 112 112 112s112-50.238281 112-112-50.238281-112-112-112-112 50.238281-112 112zm40.648438 64h39.351562v-16h-51.007812c-2.9375-5.0625-5.398438-10.40625-7.390626-16h58.398438v-16h-62.550781c-.882813-5.214844-1.449219-10.535156-1.449219-16h64v-16h-62.550781c6.773437-40.113281 38.4375-71.785156 78.550781-78.550781v189.109375c-21.839844-3.695313-41.152344-14.75-55.351562-30.558594zm167.351562-64c0 52.9375-43.0625 96-96 96v-192c52.9375 0 96 43.0625 96 96zm0 0" data-original="#000000" class="" style="fill:#000000"/><path d="m496 176c0-56.398438-32.664062-105.183594-80-128.808594v-7.191406c0-22.054688-17.945312-40-40-40h-272c-22.054688 0-40 17.945312-40 40v312h-64v40c0 22.054688 17.945312 40 40 40h272v24c0 22.054688 17.945312 40 40 40s40-17.945312 40-40v-120h-16v-18.167969c67.992188-11.480469 120-70.625 120-141.832031zm-16 0c0 70.574219-57.425781 128-128 128s-128-57.425781-128-128 57.425781-128 128-128 128 57.425781 128 128zm-80-136v.398438c-14.601562-5.183594-30.222656-8.167969-46.550781-8.328126 3.292969-9.328124 12.109375-16.070312 22.550781-16.070312 13.230469 0 24 10.769531 24 24zm-88 296v80c-13.230469 0-24-10.769531-24-24v-40h-192v16h176v24c0 9.039062 3.128906 17.296875 8.207031 24h-240.207031c-13.230469 0-24-10.769531-24-24v-24h64v-328c0-13.230469 10.769531-24 24-24h240.207031c-3.695312 4.886719-6.335937 10.566406-7.480469 16.832031-66.972656 7.097657-120.351562 60.289063-127.78125 127.167969h-80.945312v16h80c0 5.414062.359375 10.734375.945312 16h-112.945312v16h115.710938c1.25 5.464844 2.839843 10.792969 4.695312 16h-120.40625v16h127.191406c20.183594 40.457031 58.777344 70.0625 104.808594 77.832031v18.167969zm64 120c0 13.230469-10.769531 24-24 24s-24-10.769531-24-24v-104h48zm-16-120h-16v-16.40625c2.664062.148438 5.296875.40625 8 .40625s5.335938-.257812 8-.40625zm0 0" data-original="#000000" class="" style="fill:#000000"/><path d="m96 160h16v16h-16zm0 0" data-original="#000000" class="" style="fill:#000000"/><path d="m96 256h120v16h-120zm0 0" data-original="#000000" class="" style="fill:#000000"/><path d="m96 288h136v16h-136zm0 0" data-original="#000000" class="" style="fill:#000000"/><path d="m264 320h16v16h-16zm0 0" data-original="#000000" class="" style="fill:#000000"/><path d="m96 320h152v16h-152zm0 0" data-original="#000000" class="" style="fill:#000000"/></g> </svg>
