<svg xmlns="http://www.w3.org/2000/svg" width="512" height="512" viewBox="0 0 497 497.072">
    <path d="M336.035 221.992h-16V64h48v136h-16V80h-16zm0 0" data-original="#000000"/>
    <path d="M448.035 0v240h-16V32h-48v208H344.98v16h151.055V0zm-48 48h16v192h-16zm80 192h-16V16h16zm0 0M186.46 118.543c3.544-9.527 5.575-19.79 5.575-30.543 0-48.52-39.48-88-88-88C58.211 0 20.5 35.215 16.445 80H.035v8c0 57.344 46.656 104 104 104h8v-16.406c28.711-2.602 53.418-19.074 67.504-42.625l36.496 16.23V200h16v-61.2zM175.563 80h-32.335c-3.192-15.648-15.543-28-31.192-31.191V16.473c33.32 3.703 59.824 30.215 63.528 63.527zm-71.527 32c-13.23 0-24-10.77-24-24s10.77-24 24-24c13.235 0 24 10.77 24 24s-10.765 24-24 24zm-8-95.527v32.336C80.387 52 68.035 64.352 64.844 80H32.508c3.703-33.313 30.207-59.824 63.527-63.527zM16.395 96h48.449c3.191 15.648 15.543 28 31.191 31.191v48.45c-42.16-3.817-75.832-37.48-79.64-79.641zm95.64 63.527v-32.336c15.649-3.191 28-15.543 31.192-31.191h32.335c-3.703 33.313-30.207 59.824-63.527 63.527zm0 0" data-original="#000000"/>
    <path fill="#52c8ff" d="M248.035 497.07l-32-17.078c-59.207-31.566-96-92.87-96-159.992v-2.215l1.145-1.898a160.457 160.457 0 0 0 22.855-82.535V216h8c18.313 0 32-8.45 32-16v-8h128v8c0 7.55 13.688 16 32 16h8v17.352c0 29.074 7.906 57.609 22.856 82.527l1.144 1.906V320c0 67.121-36.793 128.426-96 160zm0 0" class="active-path" data-old_color="#f0bc5e" data-original="#F0BC5E"/>
    <path d="M248.035 416c-44.11 0-80-35.887-80-80s35.89-80 80-80c44.113 0 80 35.887 80 80s-35.887 80-80 80zm0-144c-35.289 0-64 28.71-64 64s28.711 64 64 64c35.29 0 64-28.71 64-64s-28.71-64-64-64zm0 0" data-original="#000000"/>
    <path d="M252.227 387.04l-39.766-19.88 7.152-14.32 24.23 12.12 28.762-71.937 14.864 5.954zm0 0" data-original="#000000"/>
</svg>
