<?xml version="1.0"?>
<svg xmlns="http://www.w3.org/2000/svg" height="512px" viewBox="0 0 496 496" width="512px" class=""><g><path d="m176.128906 347.183594-11.3125-11.3125-20.816406 20.816406-20.6875-20.6875 20.816406-20.816406-11.3125-11.3125-20.816406 20.816406-8-8-91.71875 91.71875c-7.921875 7.921875-12.28125 18.449219-12.28125 29.65625 0 23.121094 18.816406 41.9375 41.9375 41.9375 11.199219 0 21.734375-4.359375 29.65625-12.28125l91.71875-91.71875-8-8zm-115.847656 109.222656c-4.898438 4.898438-11.417969 7.59375-18.34375 7.59375-14.304688 0-25.9375-11.632812-25.9375-25.9375 0-6.925781 2.695312-13.445312 7.59375-18.34375l80.40625-80.40625 36.6875 36.6875zm0 0" data-original="#000000" class=""/><path d="m384 32h16v16h-16zm0 0" data-original="#000000" class=""/><path d="m304 32h64v16h-64zm0 0" data-original="#000000" class=""/><path d="m456 0h-208c-22.054688 0-40 17.945312-40 40v97.273438h16v-57.273438h256v336h-256v-57.273438h-16v97.273438c0 22.054688 17.945312 40 40 40h208c22.054688 0 40-17.945312 40-40v-416c0-22.054688-17.945312-40-40-40zm-232 64v-24c0-13.230469 10.769531-24 24-24h208c13.230469 0 24 10.769531 24 24v24zm232 416h-208c-13.230469 0-24-10.769531-24-24v-24h256v24c0 13.230469-10.769531 24-24 24zm0 0" data-original="#000000" class=""/><path d="m240 358.726562v17.273438c0 13.230469 10.769531 24 24 24h176c13.230469 0 24-10.769531 24-24v-256c0-13.230469-10.769531-24-24-24h-176c-13.230469 0-24 10.769531-24 24v17.273438h16v-17.273438c0-4.414062 3.585938-8 8-8h176c4.414062 0 8 3.585938 8 8v256c0 4.414062-3.585938 8-8 8h-176c-4.414062 0-8-3.585938-8-8v-17.273438zm0 0" data-original="#000000" class=""/><path d="m320 448h64v16h-64zm0 0" data-original="#000000" class=""/><path d="m432 448h16v16h-16zm0 0" data-original="#000000" class=""/><path d="m256 448h16v16h-16zm0 0" data-original="#000000" class=""/><path d="m232 368c-66.167969 0-120-53.832031-120-120s53.832031-120 120-120 120 53.832031 120 120-53.832031 120-120 120zm0-200c-44.113281 0-80 35.886719-80 80s35.886719 80 80 80 80-35.886719 80-80-35.886719-80-80-80zm0 0" fill="#f0bc5e" data-original="#F0BC5E" class="active-path" style="fill:#52C8FF" data-old_color="#f0bc5e"/><path d="m232 336c-48.519531 0-88-39.480469-88-88s39.480469-88 88-88 88 39.480469 88 88-39.480469 88-88 88zm0-160c-39.703125 0-72 32.296875-72 72s32.296875 72 72 72 72-32.296875 72-72-32.296875-72-72-72zm0 0" data-original="#000000" class=""/><path d="m192 248h-16c0-30.871094 25.128906-56 56-56v16c-22.054688 0-40 17.945312-40 40zm0 0" data-original="#000000" class=""/><g fill="#f0bc5e"><path d="m432 368h-64v-64h64zm0 0" data-original="#F0BC5E" class="active-path" style="fill:#52C8FF" data-old_color="#F0BC5E"/><path d="m432 288h-64v-64h64zm0 0" data-original="#F0BC5E" class="active-path" style="fill:#52C8FF" data-old_color="#F0BC5E"/><path d="m432 208h-64v-64h64zm0 0" data-original="#F0BC5E" class="active-path" style="fill:#52C8FF" data-old_color="#F0BC5E"/></g></g> </svg>
