<?xml version="1.0"?>
<svg xmlns="http://www.w3.org/2000/svg" height="512px" viewBox="0 0 496 496" width="512px" class="hovered-paths"><g><path d="m104 96v80h128v144h-128v80h224v-304zm0 0" fill="#f0bc5e" data-original="#F0BC5E" class="hovered-path active-path" data-old_color="#f0bc5e" style="fill:#5EC1F0"/><path d="m464 278.246094v-60.492188l-13.640625-3.410156c-1.421875-4.191406-3.09375-8.246094-4.984375-12.136719l7.199219-12.023437-42.765625-42.769532-12.023438 7.203126c-3.882812-1.890626-7.9375-3.5625-12.136718-4.984376l-3.402344-13.632812h-30.246094v48c35.34375 0 64 28.65625 64 64s-28.65625 64-64 64v48h30.246094l3.410156-13.640625c4.191406-1.421875 8.246094-3.09375 12.136719-4.984375l12.023437 7.199219 42.769532-42.765625-7.203126-12.023438c1.890626-3.882812 3.5625-7.9375 4.984376-12.136718zm0 0" fill="#f0bc5e" data-original="#F0BC5E" class="hovered-path active-path" data-old_color="#f0bc5e" style="fill:#5EC1F0"/><path d="m168 448h96v16h-96zm0 0" data-original="#000000" class="" style="fill:#000000" data-old_color="#000000"/><path d="m357.105469 25.265625c-5.890625-14.769531-20.265625-25.265625-37.105469-25.265625h-208c-22.054688 0-40 17.945312-40 40v33.433594c-26.472656 26.695312-46.601562 59.160156-58.679688 94.566406h-13.320312v160h13.3125c12.0625 35.382812 32.214844 67.921875 58.6875 94.609375v33.390625c0 22.054688 17.945312 40 40 40h136c136.742188 0 248-111.257812 248-248 0-95.464844-53.207031-180.695312-138.894531-222.734375zm-148.234375 158.734375-88.871094 69.824219-88.871094-69.824219zm-49.457032 59.207031 64.585938-50.75v109.464844zm-78.828124 0-64.585938 58.714844v-109.464844zm12.757812 10.023438 26.65625 20.945312 26.65625-20.945312 64.648438 58.769531h-182.609376zm-5.34375 74.769531h152v-160h-152v-88h256v336h-256zm272-102.527344c9.289062 3.3125 16 12.113282 16 22.527344s-6.710938 19.214844-16 22.527344zm0 61.71875c18.230469-3.71875 32-19.871094 32-39.191406s-13.769531-35.472656-32-39.191406v-16.167969c27.097656 3.902344 48 27.207031 48 55.359375s-20.902344 51.457031-48 55.359375zm-248-271.191406h208c13.230469 0 24 10.769531 24 24v24h-256v-24c0-13.230469 10.769531-24 24-24zm-40 81.023438v70.976562h-41.769531c9.53125-25.894531 23.746093-49.96875 41.769531-70.976562zm-41.753906 230.976562h41.753906v70.992188c-18.023438-21.015626-32.230469-45.113282-41.753906-70.992188zm81.753906 152c-13.230469 0-24-10.769531-24-24v-24h256v24c0 1.121094-.265625 2.207031-.414062 3.3125-29.171876 13.246094-61.515626 20.6875-95.585938 20.6875zm248-28.910156v-131.5625c35.945312-4 64-34.535156 64-71.527344s-28.054688-67.527344-64-71.527344v-131.585937c74.289062 40.890625 120 117.585937 120 203.113281 0 87.328125-48.519531 163.511719-120 203.089844zm0 0" data-original="#000000" class="" style="fill:#000000" data-old_color="#000000"/><path d="m312 96h16v16h-16zm0 0" data-original="#000000" class="" style="fill:#000000" data-old_color="#000000"/><path d="m312 128h16v272h-16zm0 0" data-original="#000000" class="" style="fill:#000000" data-old_color="#000000"/></g> </svg>
