<?xml version="1.0"?>
<svg xmlns="http://www.w3.org/2000/svg" height="512px" viewBox="0 0 496 496" width="512px" class=""><g><g fill="#f0bc5e"><path d="m248 370.800781h.078125c8.242187 3.359375 17.203125 5.199219 26.480469 5.199219h13.441406v104l.800781 4.480469c-13.199219 2.320312-26.878906 3.519531-40.800781 3.519531-5.359375 0-10.71875-.160156-16-.558594v-125.921875c4.878906 3.839844 10.238281 6.878907 16 9.28125zm0 0" data-original="#F0BC5E" class="active-path" data-old_color="#F0BC5E" style="fill:#5EC1F0"/><path d="m192.132812 94.566406 15.992188-88 15.734375 2.859375-15.992187 88zm0 0" data-original="#F0BC5E" class="active-path" data-old_color="#F0BC5E" style="fill:#5EC1F0"/><path d="m272.136719 9.429688 15.734375-2.863282 16.003906 88-15.734375 2.863282zm0 0" data-original="#F0BC5E" class="active-path" data-old_color="#F0BC5E" style="fill:#5EC1F0"/><path d="m240 8h16v88h-16zm0 0" data-original="#F0BC5E" class="active-path" data-old_color="#F0BC5E" style="fill:#5EC1F0"/><path d="m168 144v32h41.375c14.488281 0 28.386719-5.753906 38.625-16 10.246094 10.246094 24.136719 16 38.625 16h41.375v-32zm0 0" data-original="#F0BC5E" class="active-path" data-old_color="#F0BC5E" style="fill:#5EC1F0"/><path d="m288 312h24c30.871094 0 56-25.128906 56-56v-112h-40v80c0 29.59375-16.113281 55.367188-40 69.207031zm0 0" data-original="#F0BC5E" class="active-path" data-old_color="#F0BC5E" style="fill:#5EC1F0"/><path d="m184 312h24v-18.792969c-23.886719-13.839843-40-39.613281-40-69.207031v-80h-40v112c0 30.871094 25.128906 56 56 56zm0 0" data-original="#F0BC5E" class="active-path" data-old_color="#F0BC5E" style="fill:#5EC1F0"/></g><path d="m248 264c-8.824219 0-16-7.175781-16-16h-16c0 17.648438 14.351562 32 32 32s32-14.351562 32-32h-16c0 8.824219-7.175781 16-16 16zm0 0" data-original="#000000" class=""/><path d="m216 200c0 4.417969-3.582031 8-8 8s-8-3.582031-8-8 3.582031-8 8-8 8 3.582031 8 8zm0 0" data-original="#000000" class=""/><path d="m296 200c0 4.417969-3.582031 8-8 8s-8-3.582031-8-8 3.582031-8 8-8 8 3.582031 8 8zm0 0" data-original="#000000" class=""/><path d="m321.550781 11.230469c-2.78125-6.710938-9.328125-11.230469-16.648437-11.230469h-113.804688c-7.320312 0-13.859375 4.511719-16.648437 11.230469-102.882813 31.945312-174.449219 128.65625-174.449219 236.769531 0 136.753906 111.246094 248 248 248s248-111.246094 248-248c0-108.113281-71.558594-204.816406-174.449219-236.769531zm-132.453125 6.160156c.300782-.832031 1.101563-1.390625 2-1.390625h113.8125c.890625 0 1.699219.558594 2 1.398438l25.664063 70.601562h-169.148438zm210.902344 405.65625c-10.625 9.242187-22.089844 17.539063-34.273438 24.746094 1.433594-5.296875 2.273438-10.761719 2.273438-16.328125v-.832032c0-16.488281-6.6875-32.625-18.34375-44.28125l-11.3125 11.3125c8.679688 8.671876 13.65625 20.6875 13.65625 32.960938v.832031c0 9.222657-2.710938 18.175781-7.832031 25.855469l-1.648438 2.472656c-14.765625 6.613282-30.328125 11.765625-46.519531 15.183594v-106.96875h-21.40625c-1.832031 0-3.609375-.273438-5.410156-.433594 10.296875-7.957031 18.511718-18.359375 23.792968-30.421875l74.871094 14.976563c18.632813 3.734375 32.152344 20.230468 32.152344 39.230468zm-120-96.527344c-5.535156 15.648438-17.054688 28.328125-31.992188 35.410157-14.671874-6.953126-26.367187-19.480469-32.007812-35.480469v-20.5625c9.9375 3.898437 20.703125 6.113281 32 6.113281s22.0625-2.214844 32-6.113281zm-32-30.519531c-39.703125 0-72-32.296875-72-72v-40h33.375c14.183594 0 27.648438-4.679688 38.625-13.320312 10.976562 8.640624 24.441406 13.320312 38.625 13.320312h33.375v40c0 39.703125-32.296875 72-72 72zm-3.3125-144-2.34375 2.34375c-8.808594 8.808594-20.511719 13.65625-32.96875 13.65625h-33.375v-16zm75.3125 16h-33.375c-12.457031 0-24.167969-4.847656-32.96875-13.65625l-2.34375-2.34375h68.6875zm-213.871094-32c-1.175781 0-2.128906-.953125-2.128906-2.128906 0-.757813.40625-1.464844 1.070312-1.839844l49.058594-28.03125h187.742188l49.066406 28.03125c.65625.375 1.0625 1.082031 1.0625 1.839844 0 1.175781-.953125 2.128906-2.128906 2.128906zm-90.128906 112c0-96.921875 61.480469-184.0625 151.296875-217.472656l-21.816406 59.976562-48.34375 27.632813c-5.632813 3.214843-9.136719 9.246093-9.136719 15.734375 0 9.992187 8.136719 18.128906 18.128906 18.128906h53.871094v72c0 30.816406 15.953125 57.9375 40 73.664062v23.785157l-74.984375 14.992187c-26.085937 5.214844-45.015625 28.320313-45.015625 54.910156v16.390626c-39.609375-41.636719-64-97.878907-64-159.742188zm137.464844 211.785156-1.640625-2.449218c-5.113281-7.695313-7.824219-16.648438-7.824219-25.871094v-.832032c0-12.273437 4.976562-24.289062 13.65625-32.96875l-11.3125-11.3125c-11.65625 11.648438-18.34375 27.792969-18.34375 44.273438v.832031c0 5.566407.839844 11.03125 2.273438 16.328125-12.183594-7.210937-23.640626-15.503906-34.273438-24.746094v-31.695312c0-19 13.519531-35.496094 32.160156-39.222656l74.832032-14.96875c12.351562 28.289062 40.28125 46.847656 71.601562 46.847656h5.40625v93.742188c-10.472656 1.449218-21.136719 2.257812-32 2.257812-33.65625 0-65.640625-7.265625-94.535156-20.214844zm262.535156-52.042968v-16.390626c0-26.589843-18.929688-49.695312-45.015625-54.910156l-74.984375-14.992187v-23.785157c24.046875-15.726562 40-42.847656 40-73.664062v-72h53.871094c9.992187 0 18.128906-8.136719 18.128906-18.128906 0-6.496094-3.503906-12.519532-9.136719-15.734375l-48.351562-27.632813-21.816407-59.984375c89.824219 33.410157 151.304688 120.550781 151.304688 217.480469 0 61.863281-24.390625 118.105469-64 159.742188zm0 0" data-original="#000000" class=""/><path d="m248 400h16v16h-16zm0 0" data-original="#000000" class=""/><path d="m248 448h16v16h-16zm0 0" data-original="#000000" class=""/></g> </svg>
