<?xml version="1.0"?>
<svg xmlns="http://www.w3.org/2000/svg" id="Layer_3" enable-background="new 0 0 64 64" height="512px" viewBox="0 0 64 64" width="512px" class="hovered-paths"><g><path d="m30 54c-11.046 0-20-8.954-20-20 0-4.117 1.253-7.937 3.386-11.117l-6.584-4.558c-3.029 4.472-4.802 9.865-4.802 15.675 0 15.464 12.536 28 28 28 14.105 0 25.769-10.432 27.711-24h-8.113c-1.853 9.129-9.922 16-19.598 16z" fill="#f0bc5e" data-original="#F0BC5E" class="hovered-path active-path" style="fill:#5EC1F0" data-old_color="#f0bc5e"/><path d="m52 32h10c0-8.284-3.358-15.784-8.787-21.213l-7.071 7.071c3.619 3.619 5.858 8.619 5.858 14.142z" fill="#f0bc5e" data-original="#F0BC5E" class="hovered-path active-path" style="fill:#5EC1F0" data-old_color="#f0bc5e"/><path d="m48.619 37.801c-1.788 8.807-9.619 15.199-18.619 15.199-10.477 0-19-8.523-19-19 0-9 6.392-16.83 15.199-18.618l.801-.163v-10.083l-1.142.163c-14.171 2.028-24.858 14.367-24.858 28.701 0 15.99 13.009 29 29 29 14.334 0 26.673-10.687 28.701-24.858l.163-1.142h-10.083zm-4.509 11.723 4.22 4.22c-4.626 4.288-10.718 6.963-17.33 7.211v-5.998c4.978-.239 9.579-2.23 13.11-5.433zm-15.11 5.425v6.025c-6.691-.245-12.766-2.934-17.359-7.201l4.258-4.257c3.499 3.184 8.066 5.195 13.101 5.433zm-14.515-6.847-4.258 4.257c-4.268-4.593-6.956-10.668-7.202-17.359h6.025c.24 5.035 2.251 9.602 5.435 13.102zm-5.442-15.102h-5.998c.179-4.764 1.614-9.255 4.011-13.128l4.974 3.323c-1.756 2.912-2.817 6.26-2.987 9.805zm8.483-15.868c-.568.422-1.121.863-1.642 1.338l-4.215-4.214c.802-.748 1.637-1.461 2.526-2.108zm-1.666-6.093c.93-.577 1.898-1.097 2.9-1.56l2.294 5.539c-.642.304-1.263.638-1.866 1.002zm-1.384 8.851c-.475.523-.916 1.074-1.336 1.642l-4.976-3.324c.644-.889 1.346-1.733 2.091-2.538zm10.524-6.289c-.718.176-1.415.4-2.1.646l-2.298-5.547c1.413-.528 2.88-.947 4.398-1.232zm31.532 25.399c-.961 5.119-3.392 9.688-6.788 13.331l-4.215-4.214c2.31-2.532 4.02-5.64 4.87-9.116h6.133z" data-original="#000000" class="" style="fill:#000000"/><path d="m32 1h-1v12h1c10.477 0 19 8.523 19 19v1h12v-1c0-17.094-13.907-31-31-31zm27.155 20.834c.43 1.145.793 2.323 1.077 3.531l-7.857 1.563c-.172-.691-.384-1.365-.622-2.027zm-8.172 1.221c-.303-.641-.641-1.261-1.005-1.865l6.67-4.457c.648 1.042 1.226 2.13 1.74 3.254zm-17.983-12.032v-8.006c9.267.316 17.439 5.006 22.528 12.06l-6.665 4.453c-3.643-4.914-9.364-8.201-15.863-8.507zm19.977 19.977c-.034-.714-.108-1.417-.211-2.111l7.851-1.562c.196 1.202.325 2.426.367 3.673z" data-original="#000000" class="" style="fill:#000000"/><path d="m30 51v-2c-7.909 0-14.485-6.177-14.971-14.062l-1.996.123c.55 8.938 8.004 15.939 16.967 15.939z" data-original="#000000" class="" style="fill:#000000"/><path d="m15.263 31.187-1.965-.373c-.132.695-.222 1.411-.266 2.125l1.996.123c.04-.631.118-1.262.235-1.875z" data-original="#000000" class="" style="fill:#000000"/></g> </svg>
