<?xml version="1.0"?>
<svg xmlns="http://www.w3.org/2000/svg" xmlns:xlink="http://www.w3.org/1999/xlink" version="1.1" id="Capa_1" x="0px" y="0px" viewBox="0 0 496 496" style="enable-background:new 0 0 496 496;" xml:space="preserve" width="512px" height="512px"><g><path style="fill:#5EC1F0" d="M296,392h-96c-8.84,0-16-7.16-16-16l0,0c0-8.84,7.16-16,16-16h96c8.84,0,16,7.16,16,16l0,0  C312,384.84,304.84,392,296,392z" data-original="#F0BC5E" class="active-path" data-old_color="#F0BC5E"/><path d="M397.656,111.032c6.048-6.04,9.376-14.08,9.376-22.632s-3.328-16.584-9.376-22.632L386.344,77.08  c3.024,3.024,4.688,7.04,4.688,11.32s-1.664,8.296-4.688,11.32L397.656,111.032z" data-original="#000000" class="" style="fill:#000000"/><rect x="336" y="304" width="16" height="16" data-original="#000000" class="" style="fill:#000000"/><path d="M288,136V88h-80v48H288z M272,120h-16v-16h16V120z M224,104h16v16h-16V104z" data-original="#000000" class="" style="fill:#000000"/><path d="M496,392V104c0-13.232-10.768-24-24-24h-33.584c-1.816-13.904-8.056-26.768-18.136-36.848l-11.312,11.312  c9.072,9.072,14.064,21.128,14.064,33.944s-4.992,24.872-14.064,33.944l11.312,11.312c1.792-1.792,3.424-3.696,4.976-5.656H448v208  H48V128h27.392c5.32,12.112,16.464,21.024,29.872,23.32C108.376,160.96,117.336,168,128,168h24h8c5.352,0,10.68,0.208,16,0.424V256  c0,22.056,17.944,40,40,40s40-17.944,40-40v-76.168c23.456,5.84,46.448,13.712,68.8,23.872l7.888,3.584l6.624-14.56l-7.888-3.584  c-51.784-23.544-106.72-36-163.424-37.072V71.928c56.704-1.072,111.64-13.52,163.424-37.056l7.888-3.584l-6.624-14.56l-7.888,3.576  C272.68,43.992,217.232,56,160,56h-8h-24c-10.664,0-19.624,7.04-22.736,16.68C98.84,73.784,93,76.424,88,80.2V80H24  C10.768,80,0,90.768,0,104v288c0,13.232,10.768,24,24,24h119.312L0,474.632V496h49.296l144-48h109.4l144,48H496v-21.368L352.688,416  H472C485.232,416,496,405.232,496,392z M192,200h16v40h-16V200z M240,256c0,13.232-10.768,24-24,24s-24-10.768-24-24h32v-72h-32  v-14.592c16.184,1.288,32.2,3.504,48,6.744V256z M120,80c0-4.408,3.584-8,8-8h24v16h-16v16h16v16h-16v16h16v16h-24  c-4.416,0-8-3.592-8-8V80z M104,89.472v45.048c-9.288-3.312-16-12.112-16-22.528S94.712,92.784,104,89.472z M184,434.232L46.704,480  H29.128L184,416.648V434.232z M296,432h-96v-16h96V432z M466.872,480h-17.576L312,434.232v-17.584L466.872,480z M24,400  c-4.416,0-8-3.592-8-8V104c0-4.408,3.584-8,8-8h51.392C73.232,100.912,72,106.304,72,112H32v240h432V112h-29.488  c2.024-5.104,3.376-10.472,4.024-16H472c4.416,0,8,3.592,8,8v288c0,4.408-3.584,8-8,8H24z" data-original="#000000" class="" style="fill:#000000"/><rect x="336" y="272" width="96" height="16" data-original="#000000" class="" style="fill:#000000"/><rect x="336" y="240" width="96" height="16" data-original="#000000" class="" style="fill:#000000"/><rect x="416" y="304" width="16" height="16" data-original="#000000" class="" style="fill:#000000"/><rect x="376" y="304" width="16" height="16" data-original="#000000" class="" style="fill:#000000"/><rect x="280" y="368" width="16" height="16" data-original="#000000" class="" style="fill:#000000"/><rect x="200" y="368" width="16" height="16" data-original="#000000" class="" style="fill:#000000"/><rect x="240" y="368" width="16" height="16" data-original="#000000" class="" style="fill:#000000"/><path style="fill:#5EC1F0" d="M352,224c-13.232,0-24-10.768-24-24V24c0-13.232,10.768-24,24-24s24,10.768,24,24v176  C376,213.232,365.232,224,352,224z" data-original="#F0BC5E" class="active-path" data-old_color="#F0BC5E"/></g> </svg>
