<?xml version="1.0"?>
<svg xmlns="http://www.w3.org/2000/svg" xmlns:xlink="http://www.w3.org/1999/xlink" version="1.1" id="Layer_1_1_" x="0px" y="0px" viewBox="0 0 64 64" style="enable-background:new 0 0 64 64;" xml:space="preserve" width="512px" height="512px" class="hovered-paths"><g><g>
	<g>
		<g>
			<path style="fill:#5FC1F0" d="M49,25c-5.514,0-10-4.486-10-10S43.486,5,49,5s10,4.486,10,10S54.514,25,49,25z" data-original="#F0BC5E" class="active-path" data-old_color="#F0BC5E"/>
		</g>
	</g>
	<path d="M62.949,14C62.433,6.747,56.382,1,49,1c-4.964,0-9.321,2.604-11.808,6.51C33.236,3.366,27.748,1,22,1   C10.421,1,1,10.42,1,22v26c0,2.757,2.243,5,5,5h16.613l-1.333,4H18c-1.654,0-3,1.346-3,3v3h34v-3c0-1.654-1.346-3-3-3h-3.279   l-1.334-4H58c2.757,0,5-2.243,5-5V14H62.949z M49,3c6.617,0,12,5.383,12,12s-5.383,12-12,12s-12-5.383-12-12S42.383,3,49,3z M46,33   h6v5c0,1.654-1.346,3-3,3s-3-1.346-3-3V33z M46,31v-2.332C46.968,28.88,47.97,29,49,29s2.032-0.12,3-0.332V31H46z M35.142,35.702   c-0.757-0.728-2.196-1.915-4.41-2.92l-0.826,1.821c1.813,0.823,3.037,1.787,3.705,2.402c-2.49,1.925-5.451,3.241-8.651,3.749   c1.413-1.396,3.22-3.487,4.772-6.268l-1.746-0.975c-1.647,2.95-3.632,5.084-4.985,6.342v-6.807c1.086,0.049,2.152,0.151,3.16,0.356   l0.398-1.96c-1.138-0.231-2.338-0.345-3.559-0.396V23h7.965c-0.079,1.881-0.367,3.736-0.885,5.523L32,29.081   c0.572-1.969,0.885-4.011,0.965-6.081h4.562c0.835,1.194,1.854,2.245,3.011,3.127C39.707,29.875,37.787,33.173,35.142,35.702z    M11.023,23c0.143,3.772,1.075,7.025,2.333,9.741c-2.253,1.008-3.726,2.211-4.494,2.952C5.484,32.451,3.312,27.978,3.051,23H11.023   z M16.217,33.811c1.36-0.406,2.95-0.697,4.783-0.778v6.816C19.704,38.636,17.829,36.598,16.217,33.811z M21,31.034   c-2.214,0.09-4.12,0.463-5.732,0.982c-1.194-2.518-2.072-5.541-2.221-9.016H21V31.034z M14.266,34.521   c1.537,2.75,3.335,4.829,4.748,6.221c-3.216-0.511-6.162-1.824-8.629-3.739C11.065,36.367,12.335,35.367,14.266,34.521z    M27.783,10.189c-1.36,0.406-2.95,0.697-4.783,0.778V4.151C24.296,5.364,26.171,7.402,27.783,10.189z M24.992,3.265   c3.146,0.504,6.111,1.781,8.628,3.728c-0.679,0.635-1.951,1.638-3.886,2.487C28.199,6.733,26.405,4.656,24.992,3.265z M23,12.966   c2.214-0.09,4.12-0.463,5.732-0.982c1.194,2.518,2.072,5.541,2.221,9.016H23V12.966z M36.37,21h-3.393   c-0.143-3.772-1.075-7.025-2.333-9.741c2.256-1.009,3.729-2.215,4.497-2.955c0.36,0.345,0.716,0.694,1.05,1.069   C35.43,11.096,35,12.998,35,15C35,17.149,35.501,19.178,36.37,21z M8.864,8.305c0.655,0.628,1.815,1.593,3.528,2.485l0.924-1.773   c-1.397-0.729-2.358-1.502-2.924-2.025c2.47-1.916,5.42-3.228,8.64-3.737c-1.229,1.216-2.754,2.955-4.153,5.218l1.701,1.052   C18.096,7.072,19.798,5.26,21,4.142v6.814c-0.965-0.043-1.915-0.128-2.819-0.294l-0.361,1.967c1.021,0.188,2.093,0.282,3.181,0.327   V21h-7.964c0.082-1.949,0.387-3.868,0.941-5.713l-1.916-0.574c-0.609,2.031-0.942,4.143-1.025,6.287H3.051   C3.312,16.021,5.484,11.548,8.864,8.305z M41.279,59H46c0.552,0,1,0.449,1,1v1H17v-1c0-0.551,0.448-1,1-1h20v-2H23.387l1.333-4   H39.28L41.279,59z M58,51H6c-1.654,0-3-1.346-3-3v-1h58v1C61,49.654,59.654,51,58,51z M61,45H3V30.886C6.355,38.03,13.599,43,22,43   c9.57,0,17.924-6.545,20.307-15.707c0.542,0.296,1.111,0.545,1.693,0.768V31h-2v2h2v5c0,2.757,2.243,5,5,5s5-2.243,5-5v-5h2v-2h-2   v-2.939c2.94-1.129,5.398-3.218,7-5.887V45z" data-original="#000000" class="" style="fill:#000000" data-old_color="#000000"/>
	<g>
		<g>
			<path style="fill:#5FC1F0" d="M15,16c-2.206,0-4-1.794-4-4s1.794-4,4-4s4,1.794,4,4S17.206,16,15,16z" data-original="#F0BC5E" class="active-path" data-old_color="#F0BC5E"/>
		</g>
	</g>
	<g>
		<g>
			<path style="fill:#5FC1F0" d="M29,35c-2.206,0-4-1.794-4-4s1.794-4,4-4s4,1.794,4,4S31.206,35,29,35z" data-original="#F0BC5E" class="active-path" data-old_color="#F0BC5E"/>
		</g>
	</g>
</g></g> </svg>
