<?xml version="1.0"?>
<svg xmlns="http://www.w3.org/2000/svg" height="512px" viewBox="0 0 496 496" width="512px" class=""><g><g fill="#f0bc5e"><path d="m224 287.992188-16 10.664062v77.335938h32v-77.335938zm0 0" data-original="#F0BC5E" class="active-path" style="fill:#1A94D0" data-old_color="#F0BC5E"/><path d="m312 375.992188h-40v-112l40 5.839843zm0 0" data-original="#F0BC5E" class="active-path" style="fill:#1A94D0" data-old_color="#F0BC5E"/><path d="m176 375.992188h-40v-106.160157l40-5.839843zm0 0" data-original="#F0BC5E" class="active-path" style="fill:#1A94D0" data-old_color="#F0BC5E"/></g><path d="m48 447.992188h16v16h-16zm0 0" data-original="#000000" class=""/><path d="m80 447.992188h16v16h-16zm0 0" data-original="#000000" class=""/><path d="m112 447.992188h16v16h-16zm0 0" data-original="#000000" class=""/><path d="m384 447.992188h64v16h-64zm0 0" data-original="#000000" class=""/><path d="m480 415.992188v-264c0-22.054688-17.945312-40-40-40h-40v16h40c13.230469 0 24 10.769531 24 24v264h-16v-256c0-8.824219-7.175781-16-16-16h-38.550781l-2.664063-16h-6.785156v-64c0-13.230469-10.769531-24-24-24h-10.65625c-2.726562-5-7.359375-8.894532-13.070312-10.527344l-94.378907-26.96875c-11.621093-3.328125-24.167969-3.328125-35.78125 0l-94.386719 26.96875c-9.253906 2.648437-15.726562 11.222656-15.726562 20.855468 0 5.792969 2.257812 11.238282 6.351562 15.335938l12.839844 12.839844c-1.976562 2.664062-3.191406 5.929687-3.191406 9.496094v16c0 8.824218 7.175781 16 16 16v24h-64c-8.824219 0-16 7.175781-16 16v256h-16v-264c0-13.230469 10.769531-24 24-24h40.015625v-16h-40.015625c-22.054688 0-40 17.945312-40 40v264h-16v40c0 22.054687 17.945312 40 40 40h416c22.054688 0 40-17.945313 40-40v-40zm-96-230.777344c0 3.738281-3.039062 6.777344-6.777344 6.777344h-2.445312c-3.738282 0-6.777344-3.039063-6.777344-6.777344 0-.375.03125-.75.089844-1.109375l6.6875-40.113281h2.445312l6.679688 40.097656c.066406.375.097656.75.097656 1.125zm-272-134.894532c0-2.527343 1.695312-4.777343 4.128906-5.472656l94.382813-26.96875c8.761719-2.503906 18.214843-2.503906 26.984375 0l77.382812 22.113282h-26.878906v16h44.6875l-16 16h-185.375l-17.648438-17.648438c-1.070312-1.070312-1.664062-2.503906-1.664062-4.023438zm15.992188 37.671876h192.007812v16h-192zm61.6875 176.992187 21.761718 21.757813-27.441406 18.304687v-38.414063zm-21.679688 103.007813h-72v-45.886719c0-17.722657 11.886719-33.519531 28.910156-38.433594l43.089844-12.433594zm16-43.71875 40-26.664063 40 26.664063v43.71875h-80zm74.320312-59.289063 5.679688 1.640625v38.414062l-27.441406-18.296874zm21.679688 6.253906 43.089844 12.433594c17.023437 4.914063 28.910156 20.710937 28.910156 38.433594v45.886719h-72zm-32-18.558593-24 24-24-24v-9.398438c7.414062 3.015625 15.511719 4.710938 24 4.710938s16.585938-1.695313 24-4.710938zm-24-20.6875c-26.472656 0-48-21.527344-48-48v-64h96v64c0 26.472656-21.527344 48-48 48zm-80-72c0-8.824219 7.175781-16 16-16v32c-8.824219 0-16-7.175782-16-16zm144-16c8.824219 0 16 7.175781 16 16 0 8.824218-7.175781 16-16 16zm16-11.550782c-4.726562-2.753906-10.144531-4.449218-16-4.449218v-8h16zm-144-12.449218v8c-5.855469 0-11.273438 1.695312-16 4.449218v-12.449218zm320 336c0 13.230468-10.769531 24-24 24h-416c-13.230469 0-24-10.769532-24-24v-24h164.816406c11.503906 10.34375 26.222656 16 41.816406 16h50.742188c15.59375 0 30.3125-5.65625 41.816406-16h100.808594v-16h-107.3125l-2.34375 2.34375c-8.808594 8.808593-20.511719 13.65625-32.976562 13.65625h-50.742188c-12.457031 0-24.167969-4.847657-32.976562-13.65625l-2.335938-2.34375h-123.3125v-256h64c0 17.648437 14.351562 32 32 32h.550781c2.121094 16.878906 10.800781 31.71875 23.449219 41.878906v16.105468l-63.519531 18.328126c-23.832031 6.863281-40.480469 28.992187-40.480469 53.800781v61.886719h288v-61.886719c0-24.808594-16.648438-46.929688-40.480469-53.808594l-63.519531-18.320313v-16.105468c12.640625-10.160156 21.328125-25 23.449219-41.878906h.550781c17.648438 0 32-14.351563 32-32v-40c8.824219 0 16-7.175782 16-16v-16c0-3.566407-1.214844-6.832032-3.191406-9.496094l12.839844-12.839844c2.71875-2.71875 4.535156-6.054688 5.511718-9.664062h8.839844c4.40625 0 8 3.59375 8 8v64h-6.777344l-8.917968 53.496093c-.199219 1.230469-.304688 2.480469-.304688 3.726563 0 12.5625 10.214844 22.777344 22.777344 22.777344h2.445312c12.5625 0 22.777344-10.214844 22.777344-22.777344 0-1.246094-.105469-2.496094-.3125-3.742188l-3.574219-21.480468h35.886719v272h48zm0 0" data-original="#000000" class=""/></g> </svg>
