<?xml version="1.0"?>
<svg xmlns="http://www.w3.org/2000/svg" xmlns:xlink="http://www.w3.org/1999/xlink" version="1.1" id="Capa_1" x="0px" y="0px" viewBox="0 0 496 496" style="enable-background:new 0 0 496 496;" xml:space="preserve" width="512px" height="512px" class="hovered-paths"><g><g>
	<circle style="fill:#1A94D0" cx="248" cy="128" r="40" data-original="#F0BC5E" class="hovered-path active-path" data-old_color="#F0BC5E"/>
	<circle style="fill:#1A94D0" cx="40" cy="176" r="40" data-original="#F0BC5E" class="hovered-path active-path" data-old_color="#F0BC5E"/>
	<circle style="fill:#1A94D0" cx="40" cy="176" r="40" data-original="#F0BC5E" class="hovered-path active-path" data-old_color="#F0BC5E"/>
	<circle style="fill:#1A94D0" cx="456" cy="176" r="40" data-original="#F0BC5E" class="hovered-path active-path" data-old_color="#F0BC5E"/>
	<circle style="fill:#1A94D0" cx="456" cy="176" r="40" data-original="#F0BC5E" class="hovered-path active-path" data-old_color="#F0BC5E"/>
</g><path d="M371.152,386.648l-5.896-0.84c27.36-9.176,50.992-28.104,65.696-53.84L437.784,320H424c-26.472,0-48-21.528-48-48v-56  c0-47.584-26.16-90.976-68.488-113.344l-1.016-0.496C296.552,79.712,274.088,64,248,64s-48.552,15.72-58.504,38.16l-1.232,0.608  C146.16,125.024,120,168.416,120,216v56c0,26.472-21.528,48-48,48H58.216l6.84,11.968c14.704,25.736,38.336,44.664,65.696,53.84  l-5.896,0.84c-26.352,3.776-48.384,21.656-57.488,46.68L44.576,496h406.84l-22.792-62.672  C419.528,408.304,397.504,390.424,371.152,386.648z M208,367.16c12.192,5.616,25.712,8.84,40,8.84s27.808-3.224,40-8.84v12.56  l-40,26.664l-40-26.664V367.16z M248,80c26.472,0,48,21.528,48,48c0,12.608-4.872,24.52-13.72,33.56l-2.28,2.336V176h-24v-25.472  c9.288-3.312,16-12.112,16-22.528c0-13.232-10.768-24-24-24s-24,10.768-24,24c0,10.416,6.712,19.216,16,22.528V176h-24v-12.104  l-2.28-2.336C204.872,152.52,200,140.608,200,128C200,101.528,221.528,80,248,80z M216,192h64v16h-64V192z M240,128  c0-4.408,3.592-8,8-8c4.408,0,8,3.592,8,8s-3.592,8-8,8S240,132.408,240,128z M85.808,334.496C114.488,328.168,136,302.552,136,272  v-56c0-37.152,18.256-71.352,48.208-92.048C184.12,125.296,184,126.632,184,128c0,15.696,5.656,30.584,16,42.296V176h-16v16h16v32  h96v-32h16v-16h-16v-5.704c10.344-11.712,16-26.6,16-42.296c0-1.36-0.12-2.688-0.2-4.024C341.808,144.768,360,178.912,360,216v56  c0,30.552,21.512,56.168,50.192,62.496C390.888,360.368,360.216,376,327.504,376H304v-18.184c24.176-17.448,40-45.784,40-77.816v-48  h-16v48c0,44.112-35.888,80-80,80s-80-35.888-80-80v-48h-16v48c0,32.032,15.824,60.368,40,77.816V376h-23.504  C135.784,376,105.112,360.368,85.808,334.496z M67.424,480l14.984-41.2c7.08-19.464,24.208-33.376,44.712-36.304l70.984-10.144  L248,425.616l49.896-33.264l70.984,10.144c20.496,2.928,37.632,16.84,44.712,36.304l14.984,41.2H67.424z" data-original="#000000" class="" style="fill:#000000"/><rect x="240" width="16" height="40" data-original="#000000" class="" style="fill:#000000"/><rect x="166.461" y="38.46" transform="matrix(-0.7071 0.7071 -0.7071 -0.7071 336.3319 -30.3932)" width="16" height="32" data-original="#000000" class="" style="fill:#000000"/><rect x="305.524" y="46.477" transform="matrix(-0.7071 0.7071 -0.7071 -0.7071 587.3964 -134.3541)" width="32" height="16" data-original="#000000" class="" style="fill:#000000"/><path d="M64,176c0-13.232-10.768-24-24-24s-24,10.768-24,24s10.768,24,24,24S64,189.232,64,176z M32,176c0-4.408,3.592-8,8-8  s8,3.592,8,8s-3.592,8-8,8S32,180.408,32,176z" data-original="#000000" class="" style="fill:#000000"/><rect x="32" y="224" width="16" height="16" data-original="#000000" class="" style="fill:#000000"/><rect x="32" y="272" width="16" height="16" data-original="#000000" class="" style="fill:#000000"/><rect x="32" y="320" width="16" height="16" data-original="#000000" class="" style="fill:#000000"/><path d="M456,152c-13.232,0-24,10.768-24,24s10.768,24,24,24s24-10.768,24-24S469.232,152,456,152z M456,184c-4.408,0-8-3.592-8-8  s3.592-8,8-8s8,3.592,8,8S460.408,184,456,184z" data-original="#000000" class="" style="fill:#000000"/><rect x="448" y="224" width="16" height="16" data-original="#000000" class="" style="fill:#000000"/><rect x="448" y="272" width="16" height="16" data-original="#000000" class="" style="fill:#000000"/><rect x="448" y="320" width="16" height="16" data-original="#000000" class="" style="fill:#000000"/></g> </svg>
