<?xml version="1.0"?>
<svg xmlns="http://www.w3.org/2000/svg" height="512px" viewBox="0 0 496.00451 496" width="512px" class="hovered-paths"><g><path d="m272 128.003906c0 30.925782-25.074219 56-56 56-30.929688 0-56-25.074218-56-56 0-30.929687 25.070312-56 56-56 30.925781 0 56 25.070313 56 56zm0 0" fill="#f0bc5e" data-original="#F0BC5E" class="hovered-path active-path" data-old_color="#f0bc5e" style="fill:#1A94D0"/><path d="m296 136.003906h16v16h-16zm0 0" data-original="#000000" class="" style="fill:#000000"/><path d="m328 136.003906h16v16h-16zm0 0" data-original="#000000" class="" style="fill:#000000"/><path d="m360 136.003906h16v16h-16zm0 0" data-original="#000000" class="" style="fill:#000000"/><path d="m476.535156 110.769531c-15.429687-16.472656-37.863281-25.070312-60.832031-22.261719-3.832031-49.449218-45.289063-88.50390575-95.703125-88.50390575-27.617188 0-53.769531 12.03124975-71.894531 32.55859375-17.839844-20.375-43.746094-32.55859375-72.105469-32.55859375-50.433594 0-91.816406 39.10937475-95.625 88.57421875-10.808594-1.3125-21.449219-.144531-31.726562 3.617187-29.992188 10.96875-49.089844 38-48.6406255 68.855469.5585935 39.121094 32.8554685 70.953125 71.9921875 70.953125h128c13.230469 0 24-10.769531 24-24v-57.472656c9.289062-3.3125 16-12.113281 16-22.527344 0-13.234375-10.769531-24-24-24s-24 10.765625-24 24c0 10.414063 6.710938 19.214844 16 22.527344v57.472656c0 4.40625-3.585938 8-8 8h-128c-30.441406 0-55.550781-24.753906-55.992188-55.175781-.34375-23.96875 14.625-45.011719 38.144532-53.609375 8.589844-3.144531 17.253906-3.855469 26.304687-2.410156.535157 5.882812 1.558594 11.707031 3.167969 17.371094l15.390625-4.351563c-2-7.074219-3.015625-14.410156-3.015625-21.824219 0-44.113281 35.886719-80 80-80 33.207031 0 62.480469 19.980469 74.542969 50.910156l14.90625-5.824218c-2.097657-5.359375-4.65625-10.40625-7.5625-15.183594 15.152343-18.753906 37.929687-29.902344 62.113281-29.902344 44.113281 0 80 35.886719 79.96875 80.582032l-.3125 11.945312 10.246094-2.664062c21.042968-5.464844 41.121094 1.078124 54.960937 15.839843 10.695313 11.40625 16.023438 26.335938 15.007813 42.03125-1.894532 29.3125-27.398438 52.265625-58.0625 52.265625h-141.808594c-13.230469 0-24 10.765625-24 24v80h-16v40h16v-24h16v24h16v-40h-16v-80c0-4.410156 3.582031-8 8-8h141.808594c39.078125 0 71.589844-29.53125 74.039062-67.226562 1.304688-20.152344-5.558594-39.335938-19.3125-54.007813zm-260.535156 9.234375c4.414062 0 8 3.589844 8 8 0 4.40625-3.585938 8-8 8-4.417969 0-8-3.59375-8-8 0-4.410156 3.582031-8 8-8zm0 0" data-original="#000000" class="" style="fill:#000000"/><path d="m377.832031 68.570312c-10.542969-22.214843-33.25-36.566406-57.832031-36.566406v16c18.449219 0 35.472656 10.765625 43.382812 27.429688zm0 0" data-original="#000000" class="" style="fill:#000000"/><path d="m280 352.003906h-32c-22.054688 0-40 17.941406-40 40v32h112v-32c0-22.058594-17.945312-40-40-40zm0 0" fill="#f0bc5e" data-original="#F0BC5E" class="hovered-path active-path" data-old_color="#f0bc5e" style="fill:#1A94D0"/><path d="m320 416.003906h-112c-8.824219 0-16 7.175782-16 16v16c0 8.824219 7.175781 16 16 16h24v32h16v-32h32v32h16v-32h24c8.824219 0 16-7.175781 16-16v-16c0-8.824218-7.175781-16-16-16zm0 32h-112v-16l112-.007812zm0 0" data-original="#000000" class="" style="fill:#000000"/></g> </svg>
