<?xml version="1.0"?>
<svg xmlns="http://www.w3.org/2000/svg" id="Layer_35" enable-background="new 0 0 64 64" height="512px" viewBox="0 0 64 64" width="512px" class=""><g><g fill="#f0bc5e"><path d="m35.008 47.049.992 5.951-4 3 2 3-5 3h-2l5.933-15.8z" data-original="#F0BC5E" class="active-path" style="fill:#1A94D0" data-old_color="#F0BC5E"/><path d="m16.992 47.049-.992 5.951 4 3-2 3 5 3h2l-5.933-15.8z" data-original="#F0BC5E" class="active-path" style="fill:#1A94D0" data-old_color="#F0BC5E"/><path d="m26 5c-8.271 0-15 6.729-15 15v8h1c0-2.209 1.791-4 4-4v-1.697c0-1.272 1.031-2.303 2.303-2.303.455 0 .899.135 1.277.387 1.578 1.052 3.432 1.613 5.328 1.613h7.092c1.477 0 2.752.809 3.445 2h.555c2.209 0 4 1.791 4 4h1v-8c0-8.271-6.729-15-15-15z" data-original="#F0BC5E" class="active-path" style="fill:#1A94D0" data-old_color="#F0BC5E"/><path d="m43 5h16v9h-16z" data-original="#F0BC5E" class="active-path" style="fill:#1A94D0" data-old_color="#F0BC5E"/></g><path d="m26 38c2.206 0 4-1.794 4-4h-2c0 1.103-.897 2-2 2s-2-.897-2-2h-2c0 2.206 1.794 4 4 4z" data-original="#000000" class="" style="fill:#000000"/><path d="m63 1h-42v4.875c.65-.231 1.313-.433 2-.573v-2.302h38v44h-24.118l-4.113-1.851c-1.075-.483-1.769-1.557-1.769-2.735v-1.263c2.546-2.139 4.397-4.98 5.324-8.184 2.603-.17 4.676-2.321 4.676-4.967 0-2.757-2.243-5-5-5h-.026c-.914-1.207-2.348-2-3.974-2h-7.092c-1.704 0-3.354-.5-4.773-1.445-.544-.364-1.178-.555-1.832-.555-1.822 0-3.303 1.481-3.303 3.303v.798c-2.279.465-4 2.484-4 4.899 0 2.646 2.073 4.797 4.676 4.967.927 3.204 2.778 6.045 5.324 8.184v1.263c0 1.178-.694 2.252-1.769 2.735l-10.346 4.656c-4.79 2.156-7.885 6.942-7.885 12.195v1h50v-1c0-5.253-3.095-10.039-7.885-12.195l-1.788-.805h21.673zm-38.37 49.84-2.096 1.747-2.171-5.781c.296-.159.576-.34.829-.551zm1.37 1.462 2.722 2.268-2.415 6.43h-.614l-2.415-6.43zm3.467.285-2.097-1.747 3.439-4.586c.253.211.533.392.829.551zm9.533-24.587c0 1.378-.94 2.531-2.208 2.88.135-.866.208-1.751.208-2.651v-2.229c0-.288-.038-.567-.085-.842 1.205.389 2.085 1.509 2.085 2.842zm-26 0c0-1.302.839-2.402 2-2.816v3.045c0 .899.073 1.784.208 2.651-1.269-.349-2.208-1.502-2.208-2.88zm4 .229v-5.927c0-.718.584-1.302 1.303-1.302.258 0 .508.075.723.219 1.747 1.165 3.782 1.781 5.882 1.781h7.092c1.654 0 3 1.346 3 3v2.229c0 5.997-3.519 11.326-9 13.688-5.481-2.361-9-7.69-9-13.688zm8.629 15.7.371.148.371-.148c.932-.373 1.81-.828 2.642-1.342.025.722.204 1.415.516 2.043l-3.529 4.703-3.528-4.704c.311-.627.49-1.32.516-2.043.831.514 1.709.97 2.641 1.343zm-15.924 7.7 8.838-3.977 5.013 13.348h-12.556v-6h-2v6h-5.956c.36-4.066 2.894-7.676 6.661-9.371zm39.251 9.371h-5.956v-6h-2v6h-12.556l5.013-13.348 8.838 3.977c3.767 1.695 6.301 5.305 6.661 9.371z" data-original="#000000" class="" style="fill:#000000"/><circle cx="21" cy="26" r="1" data-original="#000000" class="" style="fill:#000000"/><circle cx="31" cy="26" r="1" data-original="#000000" class="" style="fill:#000000"/><path d="m59 45v-28h-6v28zm-4-26h2v24h-2z" data-original="#000000" class="" style="fill:#000000"/><path d="m51 45v-20h-6v20zm-4-18h2v16h-2z" data-original="#000000" class="" style="fill:#000000"/><path d="m37 45h6v-10h-6zm2-8h2v6h-2z" data-original="#000000" class="" style="fill:#000000"/><path d="m57 5h2v2h-2z" data-original="#000000" class="" style="fill:#000000"/><path d="m53 5h2v2h-2z" data-original="#000000" class="" style="fill:#000000"/><path d="m43 5h8v2h-8z" data-original="#000000" class="" style="fill:#000000"/><path d="m43 9h16v2h-16z" data-original="#000000" class="" style="fill:#000000"/><path d="m43 13h16v2h-16z" data-original="#000000" class="" style="fill:#000000"/></g> </svg>
