<?xml version="1.0"?>
<svg xmlns="http://www.w3.org/2000/svg" id="_x33_0" enable-background="new 0 0 64 64" height="512px" viewBox="0 0 64 64" width="512px"><g><g><g><path d="m33 12h3v2h-3z" data-original="#000000" class=""/></g><g><path d="m29.28 18.694c-3.032-3.14-3.032-8.249 0-11.389l1.439 1.389c-2.293 2.374-2.293 6.237 0 8.611z" data-original="#000000" class=""/></g><g><path d="m25.318 22.731c-2.784-2.595-4.318-6.051-4.318-9.731s1.534-7.136 4.318-9.731l1.363 1.463c-2.373 2.212-3.681 5.149-3.681 8.268s1.308 6.056 3.682 8.269z" data-original="#000000" class=""/></g><path d="m40 10.031c-.912-1.225-2.359-2.031-4-2.031h-1v10h1c1.641 0 3.088-.806 4-2.031z" fill="#f0bc5e" data-original="#F0BC5E" class="active-path" style="fill:#1A94D0" data-old_color="#f0bc5e"/><g><path d="m51 3h2v6.535h-2z" data-original="#000000" class=""/></g><g><path d="m21 62h-14v-9h14z" fill="#f0bc5e" data-original="#F0BC5E" class="active-path" style="fill:#1A94D0" data-old_color="#f0bc5e"/></g><g><path d="m11 49h2v2h-2z" data-original="#000000" class=""/><path d="m7 49h2v2h-2z" data-original="#000000" class=""/><path d="m15 49h2v2h-2z" data-original="#000000" class=""/><path d="m19 49h2v2h-2z" data-original="#000000" class=""/><path d="m58.48 55h-5.48v-38.535h-2v1.667l-4-2.667v-3.596l2.459 1.639 1.109-1.664-3.568-2.379v-3.597l4.445 2.964 1.109-1.664-5.554-3.703v-2.465h-2v2.465l-4 2.667v-3.132h-2v46h-2v-3.303l-4.465-6.697h-5.535v-2c0-1.103-.897-2-2-2h-2c-1.103 0-2 .897-2 2v2h-4v-6c0-1.103-.897-2-2-2h-4c-1.103 0-2 .897-2 2v6h-3.535l-4.465 6.697v17.303h62v-2.351zm-35.48-18h2v2h-2zm-12-4h4v2h-4zm0 4h4v2h-4zm-4.465 4h24.93l2.667 4h-30.264zm18.465 20h-10v-8h-2v8h-10v-14h32v2h-5.414l-4.586 4.586zm20 0h-2v-4h-2v4h-2v-4h-2v4h-2v-4h-2v4h-2v-4h-2v4h-2v-6h18zm0-8h-16.586l2-2h14.586zm0-4h-1.697l1.697-1.132zm0-3.535-4 2.667v-3.596l4-2.667zm0-6-4 2.667v-3.596l4-2.667zm0-6-4 2.667v-3.596l4-2.667zm0-6-4 2.667v-3.596l4-2.667zm0-6-4 2.667v-3.596l4-2.667zm0-6-4 2.667v-3.596l4-2.667zm0-6-4 2.667v-3.597l4-2.667zm2 8.403 4 2.667v3.596l-4-2.667zm0 6 4 2.667v3.596l-4-2.667zm0 6 4 2.667v3.596l-4-2.667zm0 6 4 2.667v3.596l-4-2.667zm0 6 4 2.667v3.596l-4-2.667zm0 6 4 2.667v4.465h-4zm0 13.132v-4h10.52l3.2 4z" data-original="#000000" class=""/></g><g><path d="m54 18c-2.757 0-5-2.243-5-5s2.243-5 5-5 5 2.243 5 5-2.243 5-5 5z" fill="#f0bc5e" data-original="#F0BC5E" class="active-path" style="fill:#1A94D0" data-old_color="#f0bc5e"/></g><path d="m54 12c-.552 0-1 .448-1 1s.448 1 1 1 1-.448 1-1-.448-1-1-1z" data-original="#000000" class=""/></g></g> </svg>
