<?xml version="1.0"?>
<svg xmlns="http://www.w3.org/2000/svg" id="Layer_3" enable-background="new 0 0 64 64" height="512px" viewBox="0 0 64 64" width="512px" class=""><g><g fill="#f0bc5e"><circle cx="43" cy="21" r="3" data-original="#F0BC5E" class="active-path" data-old_color="#F0BC5E" style="fill:#1A94D0"/><path d="m54 21h-4c0-3.859-3.141-7-7-7v-4c6.065 0 11 4.935 11 11z" data-original="#F0BC5E" class="active-path" data-old_color="#F0BC5E" style="fill:#1A94D0"/><path d="m62 21h-4c0-8.271-6.729-15-15-15v-4c10.477 0 19 8.523 19 19z" data-original="#F0BC5E" class="active-path" data-old_color="#F0BC5E" style="fill:#1A94D0"/></g><path d="m53 63h-42c-5.514 0-10-4.486-10-10 0-4.361 2.843-8.19 6.908-9.511-.603-1.763-.908-3.604-.908-5.489 0-9.374 7.626-17 17-17 6.363 0 12.144 3.508 15.085 9.155l-1.773.924c-2.596-4.983-7.697-8.079-13.312-8.079-8.271 0-15 6.729-15 15 0 2.003.39 3.95 1.16 5.788l.473 1.129-1.2.238c-3.728.741-6.433 4.039-6.433 7.845 0 4.411 3.589 8 8 8h42c4.411 0 8-3.589 8-8s-3.589-8-8-8-8 3.589-8 8h-2c0-5.514 4.486-10 10-10s10 4.486 10 10-4.486 10-10 10z" data-original="#000000" class="" style="fill:#000000"/><path d="m54.815 44.194-1.972-.334c.104-.611.157-1.237.157-1.86 0-6.065-4.935-11-11-11s-11 4.935-11 11h-2c0-7.168 5.832-13 13-13s13 5.832 13 13c0 .734-.062 1.473-.185 2.194z" data-original="#000000" class="" style="fill:#000000"/><path d="m13 38h-2c0-7.168 5.832-13 13-13v2c-6.065 0-11 4.935-11 11z" data-original="#000000" class="" style="fill:#000000"/><path d="m53 59v-2c2.206 0 4-1.794 4-4s-1.794-4-4-4v-2c3.309 0 6 2.691 6 6s-2.691 6-6 6z" data-original="#000000" class="" style="fill:#000000"/><path d="m22 59h-11c-3.309 0-6-2.691-6-6h2c0 2.206 1.794 4 4 4h11z" data-original="#000000" class="" style="fill:#000000"/><path d="m24 57h2v2h-2z" data-original="#000000" class="" style="fill:#000000"/><path d="m28 57h2v2h-2z" data-original="#000000" class="" style="fill:#000000"/></g> </svg>
